<svg xmlns="http://www.w3.org/2000/svg" xmlns:xlink="http://www.w3.org/1999/xlink" contentStyleType="text/css" data-diagram-type="CLASS" height="941px" preserveAspectRatio="none" style="width:1880px;height:941px;background:#FFFFFF;" version="1.1" viewBox="0 0 1880 941" width="1880px" zoomAndPan="magnify"><defs/><g><!--class Element--><g class="entity" data-entity="Element" data-source-line="5" data-uid="ent0002" id="entity_Element"><rect fill="#F1F1F1" height="122.4414" rx="2.5" ry="2.5" style="stroke:#181818;stroke-width:0.5;" width="171.5713" x="1365.1" y="7"/><ellipse cx="1419.5209" cy="23" fill="#B4A7E5" rx="11" ry="11" style="stroke:#181818;stroke-width:1;"/><path d="M1415.9486,19.2651 L1415.9486,17.1069 L1423.328,17.1069 L1423.328,19.2651 L1420.8627,19.2651 L1420.8627,27.3418 L1423.328,27.3418 L1423.328,29.5 L1415.9486,29.5 L1415.9486,27.3418 L1418.414,27.3418 L1418.414,19.2651 Z " fill="#000000"/><text fill="#000000" font-family="sans-serif" font-size="14" font-style="italic" lengthAdjust="spacing" textLength="54.2295" x="1440.0209" y="28.291">Element</text><line style="stroke:#181818;stroke-width:0.5;" x1="1366.1" x2="1535.6713" y1="39" y2="39"/><text fill="#000000" font-family="sans-serif" font-size="14" lengthAdjust="spacing" textLength="62.9248" x="1371.1" y="56.5352">text(): str</text><text fill="#000000" font-family="sans-serif" font-size="14" lengthAdjust="spacing" textLength="99.6338" x="1371.1" y="73.0234">texts(): list[str]</text><text fill="#000000" font-family="sans-serif" font-size="14" lengthAdjust="spacing" textLength="91.1572" x="1371.1" y="89.5117">visible(): bool</text><text fill="#000000" font-family="sans-serif" font-size="14" lengthAdjust="spacing" textLength="84.0137" x="1371.1" y="106">click(): None</text><text fill="#000000" font-family="sans-serif" font-size="14" lengthAdjust="spacing" textLength="159.5713" x="1371.1" y="122.4883">nth(index: int): Element</text></g><!--class Frame--><g class="entity" data-entity="Frame" data-source-line="13" data-uid="ent0003" id="entity_Frame"><rect fill="#F1F1F1" height="89.4648" rx="2.5" ry="2.5" style="stroke:#181818;stroke-width:0.5;" width="327.957" x="942.91" y="23.49"/><ellipse cx="1081.7205" cy="39.49" fill="#B4A7E5" rx="11" ry="11" style="stroke:#181818;stroke-width:1;"/><path d="M1078.1483,35.7551 L1078.1483,33.5969 L1085.5277,33.5969 L1085.5277,35.7551 L1083.0623,35.7551 L1083.0623,43.8318 L1085.5277,43.8318 L1085.5277,45.99 L1078.1483,45.99 L1078.1483,43.8318 L1080.6136,43.8318 L1080.6136,35.7551 Z " fill="#000000"/><text fill="#000000" font-family="sans-serif" font-size="14" font-style="italic" lengthAdjust="spacing" textLength="41.8359" x="1102.2205" y="44.781">Frame</text><line style="stroke:#181818;stroke-width:0.5;" x1="943.91" x2="1269.867" y1="55.49" y2="55.49"/><text fill="#000000" font-family="sans-serif" font-size="14" lengthAdjust="spacing" textLength="315.957" x="948.91" y="73.0252">element(selector: str, *, has_text: str): Element</text><text fill="#000000" font-family="sans-serif" font-size="14" lengthAdjust="spacing" textLength="263.3477" x="948.91" y="89.5134">by_role(role: str, *, name: str): Element</text><text fill="#000000" font-family="sans-serif" font-size="14" lengthAdjust="spacing" textLength="212.8164" x="948.91" y="106.0017">by_test_id(test_id: str): Element</text></g><!--class Html--><g class="entity" data-entity="Html" data-source-line="19" data-uid="ent0004" id="entity_Html"><rect fill="#F1F1F1" height="138.9297" rx="2.5" ry="2.5" style="stroke:#181818;stroke-width:0.5;" width="327.957" x="1066.91" y="189.44"/><ellipse cx="1210.3177" cy="205.44" fill="#B4A7E5" rx="11" ry="11" style="stroke:#181818;stroke-width:1;"/><path d="M1206.7454,201.7051 L1206.7454,199.5469 L1214.1248,199.5469 L1214.1248,201.7051 L1211.6595,201.7051 L1211.6595,209.7818 L1214.1248,209.7818 L1214.1248,211.94 L1206.7454,211.94 L1206.7454,209.7818 L1209.2108,209.7818 L1209.2108,201.7051 Z " fill="#000000"/><text fill="#000000" font-family="sans-serif" font-size="14" font-style="italic" lengthAdjust="spacing" textLength="32.6416" x="1230.8177" y="210.731">Html</text><line style="stroke:#181818;stroke-width:0.5;" x1="1067.91" x2="1393.867" y1="221.44" y2="221.44"/><text fill="#000000" font-family="sans-serif" font-size="14" lengthAdjust="spacing" textLength="315.957" x="1072.91" y="238.9752">element(selector: str, *, has_text: str): Element</text><text fill="#000000" font-family="sans-serif" font-size="14" lengthAdjust="spacing" textLength="263.3477" x="1072.91" y="255.4634">by_role(role: str, *, name: str): Element</text><text fill="#000000" font-family="sans-serif" font-size="14" lengthAdjust="spacing" textLength="212.8164" x="1072.91" y="271.9517">by_test_id(test_id: str): Element</text><text fill="#000000" font-family="sans-serif" font-size="14" lengthAdjust="spacing" textLength="87.4863" x="1072.91" y="288.44">content(): str</text><text fill="#000000" font-family="sans-serif" font-size="14" lengthAdjust="spacing" textLength="201.2021" x="1072.91" y="304.9283">evaluate(expression: str): Any</text><text fill="#000000" font-family="sans-serif" font-size="14" lengthAdjust="spacing" textLength="179.7578" x="1072.91" y="321.4166">frame(selector: str): Frame</text></g><!--class Response--><g class="entity" data-entity="Response" data-source-line="28" data-uid="ent0005" id="entity_Response"><rect fill="#F1F1F1" height="89.4648" rx="2.5" ry="2.5" style="stroke:#181818;stroke-width:0.5;" width="96.8252" x="1120.48" y="388.37"/><ellipse cx="1135.48" cy="404.37" fill="#B4A7E5" rx="11" ry="11" style="stroke:#181818;stroke-width:1;"/><path d="M1131.9077,400.6351 L1131.9077,398.4769 L1139.2871,398.4769 L1139.2871,400.6351 L1136.8218,400.6351 L1136.8218,408.7118 L1139.2871,408.7118 L1139.2871,410.87 L1131.9077,410.87 L1131.9077,408.7118 L1134.3731,408.7118 L1134.3731,400.6351 Z " fill="#000000"/><text fill="#000000" font-family="sans-serif" font-size="14" font-style="italic" lengthAdjust="spacing" textLength="64.8252" x="1149.48" y="409.661">Response</text><line style="stroke:#181818;stroke-width:0.5;" x1="1121.48" x2="1216.3052" y1="420.37" y2="420.37"/><text fill="#000000" font-family="sans-serif" font-size="14" lengthAdjust="spacing" textLength="77.1025" x="1126.48" y="437.9052">status(): int</text><text fill="#000000" font-family="sans-serif" font-size="14" lengthAdjust="spacing" textLength="81.6484" x="1126.48" y="454.3934">html(): Html</text><text fill="#000000" font-family="sans-serif" font-size="14" lengthAdjust="spacing" textLength="54.5303" x="1126.48" y="470.8817">url(): str</text></g><!--class Page--><g class="entity" data-entity="Page" data-source-line="34" data-uid="ent0006" id="entity_Page"><rect fill="#F1F1F1" height="138.9297" rx="2.5" ry="2.5" style="stroke:#181818;stroke-width:0.5;" width="277.7881" x="709.99" y="537.84"/><ellipse cx="828.6345" cy="553.84" fill="#B4A7E5" rx="11" ry="11" style="stroke:#181818;stroke-width:1;"/><path d="M825.0623,550.1051 L825.0623,547.9469 L832.4417,547.9469 L832.4417,550.1051 L829.9763,550.1051 L829.9763,558.1818 L832.4417,558.1818 L832.4417,560.34 L825.0623,560.34 L825.0623,558.1818 L827.5276,558.1818 L827.5276,550.1051 Z " fill="#000000"/><text fill="#000000" font-family="sans-serif" font-size="14" font-style="italic" lengthAdjust="spacing" textLength="31.999" x="849.1345" y="559.131">Page</text><line style="stroke:#181818;stroke-width:0.5;" x1="710.99" x2="986.7781" y1="569.84" y2="569.84"/><text fill="#000000" font-family="sans-serif" font-size="14" lengthAdjust="spacing" textLength="54.5303" x="715.99" y="587.3752">url(): str</text><text fill="#000000" font-family="sans-serif" font-size="14" lengthAdjust="spacing" textLength="116.6895" x="715.99" y="603.8634">open(): Response</text><text fill="#000000" font-family="sans-serif" font-size="14" lengthAdjust="spacing" textLength="93.5635" x="715.99" y="620.3517">pause(): None</text><text fill="#000000" font-family="sans-serif" font-size="14" lengthAdjust="spacing" textLength="88.1494" x="715.99" y="636.84">close(): None</text><text fill="#000000" font-family="sans-serif" font-size="14" lengthAdjust="spacing" textLength="125.5078" x="715.99" y="653.3283">reload(): Response</text><text fill="#000000" font-family="sans-serif" font-size="14" lengthAdjust="spacing" textLength="265.7881" x="715.99" y="669.8166">scroll(random_wait: RandomWait): bool</text></g><!--class Browser--><g class="entity" data-entity="Browser" data-source-line="43" data-uid="ent0007" id="entity_Browser"><rect fill="#F1F1F1" height="105.9531" rx="2.5" ry="2.5" style="stroke:#181818;stroke-width:0.5;" width="248.4209" x="490.68" y="736.77"/><ellipse cx="583.7239" cy="752.77" fill="#B4A7E5" rx="11" ry="11" style="stroke:#181818;stroke-width:1;"/><path d="M580.1517,749.0351 L580.1517,746.8769 L587.5311,746.8769 L587.5311,749.0351 L585.0657,749.0351 L585.0657,757.1118 L587.5311,757.1118 L587.5311,759.27 L580.1517,759.27 L580.1517,757.1118 L582.617,757.1118 L582.617,749.0351 Z " fill="#000000"/><text fill="#000000" font-family="sans-serif" font-size="14" font-style="italic" lengthAdjust="spacing" textLength="53.833" x="604.2239" y="758.061">Browser</text><line style="stroke:#181818;stroke-width:0.5;" x1="491.68" x2="738.1009" y1="768.77" y2="768.77"/><text fill="#000000" font-family="sans-serif" font-size="14" lengthAdjust="spacing" textLength="236.4209" x="496.68" y="786.3052">open(headless: bool = True): None</text><text fill="#000000" font-family="sans-serif" font-size="14" lengthAdjust="spacing" textLength="88.1494" x="496.68" y="802.7934">close(): None</text><text fill="#000000" font-family="sans-serif" font-size="14" lengthAdjust="spacing" textLength="73.3564" x="496.68" y="819.2817">name(): str</text><text fill="#000000" font-family="sans-serif" font-size="14" lengthAdjust="spacing" textLength="128.4609" x="496.68" y="835.77">page(url: str): Page</text></g><!--class Config--><g class="entity" data-entity="Config" data-source-line="50" data-uid="ent0008" id="entity_Config"><rect fill="#F1F1F1" height="72.9766" rx="2.5" ry="2.5" style="stroke:#181818;stroke-width:0.5;" width="220.6738" x="1600.55" y="31.73"/><ellipse cx="1684.1877" cy="47.73" fill="#B4A7E5" rx="11" ry="11" style="stroke:#181818;stroke-width:1;"/><path d="M1680.6154,43.9951 L1680.6154,41.8369 L1687.9948,41.8369 L1687.9948,43.9951 L1685.5295,43.9951 L1685.5295,52.0718 L1687.9948,52.0718 L1687.9948,54.23 L1680.6154,54.23 L1680.6154,52.0718 L1683.0808,52.0718 L1683.0808,43.9951 Z " fill="#000000"/><text fill="#000000" font-family="sans-serif" font-size="14" font-style="italic" lengthAdjust="spacing" textLength="44.8984" x="1704.6877" y="53.021">Config</text><line style="stroke:#181818;stroke-width:0.5;" x1="1601.55" x2="1820.2238" y1="63.73" y2="63.73"/><text fill="#000000" font-family="sans-serif" font-size="14" lengthAdjust="spacing" textLength="134.1484" x="1606.55" y="81.2652">load(): dict[str, Any]</text><text fill="#000000" font-family="sans-serif" font-size="14" lengthAdjust="spacing" textLength="208.6738" x="1606.55" y="97.7534">save(data: dict[str, Any]): None</text></g><!--class Console--><g class="entity" data-entity="Console" data-source-line="55" data-uid="ent0009" id="entity_Console"><rect fill="#F1F1F1" height="138.9297" rx="2.5" ry="2.5" style="stroke:#181818;stroke-width:0.5;" width="197.0078" x="186.38" y="537.84"/><ellipse cx="253.3551" cy="553.84" fill="#B4A7E5" rx="11" ry="11" style="stroke:#181818;stroke-width:1;"/><path d="M249.7828,550.1051 L249.7828,547.9469 L257.1622,547.9469 L257.1622,550.1051 L254.6969,550.1051 L254.6969,558.1818 L257.1622,558.1818 L257.1622,560.34 L249.7828,560.34 L249.7828,558.1818 L252.2482,558.1818 L252.2482,550.1051 Z " fill="#000000"/><text fill="#000000" font-family="sans-serif" font-size="14" font-style="italic" lengthAdjust="spacing" textLength="54.5576" x="273.8551" y="559.131">Console</text><line style="stroke:#181818;stroke-width:0.5;" x1="187.38" x2="382.3878" y1="569.84" y2="569.84"/><text fill="#000000" font-family="sans-serif" font-size="14" lengthAdjust="spacing" textLength="172.2725" x="192.38" y="587.3752">print(message: str): None</text><text fill="#000000" font-family="sans-serif" font-size="14" lengthAdjust="spacing" textLength="185.0078" x="192.38" y="603.8634">println(message: str): None</text><text fill="#000000" font-family="sans-serif" font-size="14" lengthAdjust="spacing" textLength="161.1367" x="192.38" y="620.3517">log(message: str): None</text><text fill="#000000" font-family="sans-serif" font-size="14" lengthAdjust="spacing" textLength="173.8721" x="192.38" y="636.84">logln(message: str): None</text><text fill="#000000" font-family="sans-serif" font-size="14" lengthAdjust="spacing" textLength="79.7754" x="192.38" y="653.3283">stdout(): str</text><text fill="#000000" font-family="sans-serif" font-size="14" lengthAdjust="spacing" textLength="76.5078" x="192.38" y="669.8166">stderr(): str</text></g><!--class Content--><g class="entity" data-entity="Content" data-source-line="64" data-uid="ent0010" id="entity_Content"><rect fill="#F1F1F1" height="72.9766" rx="2.5" ry="2.5" style="stroke:#181818;stroke-width:0.5;" width="291.5557" x="1023.11" y="570.81"/><ellipse cx="1137.6701" cy="586.81" fill="#B4A7E5" rx="11" ry="11" style="stroke:#181818;stroke-width:1;"/><path d="M1134.0978,583.0751 L1134.0978,580.9169 L1141.4772,580.9169 L1141.4772,583.0751 L1139.0119,583.0751 L1139.0119,591.1518 L1141.4772,591.1518 L1141.4772,593.31 L1134.0978,593.31 L1134.0978,591.1518 L1136.5631,591.1518 L1136.5631,583.0751 Z " fill="#000000"/><text fill="#000000" font-family="sans-serif" font-size="14" font-style="italic" lengthAdjust="spacing" textLength="53.9355" x="1158.1701" y="592.101">Content</text><line style="stroke:#181818;stroke-width:0.5;" x1="1024.11" x2="1313.6657" y1="602.81" y2="602.81"/><text fill="#000000" font-family="sans-serif" font-size="14" lengthAdjust="spacing" textLength="54.5303" x="1029.11" y="620.3452">url(): str</text><text fill="#000000" font-family="sans-serif" font-size="14" lengthAdjust="spacing" textLength="279.5557" x="1029.11" y="636.8334">refine(response: Response): dict[str, Any]</text></g><!--class RandomInt--><g class="entity" data-entity="RandomInt" data-source-line="69" data-uid="ent0011" id="entity_RandomInt"><rect fill="#F1F1F1" height="72.9766" rx="2.5" ry="2.5" style="stroke:#181818;stroke-width:0.5;" width="239.0488" x="605.36" y="396.62"/><ellipse cx="683.7785" cy="412.62" fill="#ADD1B2" rx="11" ry="11" style="stroke:#181818;stroke-width:1;"/><path d="M686.2516,418.7631 Q685.6705,419.0619 685.0314,419.2113 Q684.3922,419.3607 683.6867,419.3607 Q681.1798,419.3607 679.86,417.7089 Q678.5402,416.057 678.5402,412.9359 Q678.5402,409.8065 679.86,408.1547 Q681.1798,406.5028 683.6867,406.5028 Q684.3922,406.5028 685.0397,406.6522 Q685.6871,406.8016 686.2516,407.1005 L686.2516,409.8231 Q685.6207,409.2421 685.0272,408.9723 Q684.4337,408.7025 683.8029,408.7025 Q682.4581,408.7025 681.7733,409.7692 Q681.0885,410.8358 681.0885,412.9359 Q681.0885,415.0277 681.7733,416.0944 Q682.4581,417.161 683.8029,417.161 Q684.4337,417.161 685.0272,416.8912 Q685.6207,416.6215 686.2516,416.0404 Z " fill="#000000"/><text fill="#000000" font-family="sans-serif" font-size="14" lengthAdjust="spacing" textLength="73.7119" x="704.2785" y="417.911">RandomInt</text><line style="stroke:#181818;stroke-width:0.5;" x1="606.36" x2="843.4088" y1="428.62" y2="428.62"/><text fill="#000000" font-family="sans-serif" font-size="14" lengthAdjust="spacing" textLength="190.3398" x="611.36" y="446.1552">value(start: int, end: int): int</text><text fill="#000000" font-family="sans-serif" font-size="14" lengthAdjust="spacing" textLength="227.0488" x="611.36" y="462.6434">values(start: int, end: int): list[int]</text></g><!--class RandomWait--><g class="entity" data-entity="RandomWait" data-source-line="74" data-uid="ent0012" id="entity_RandomWait"><rect fill="#F1F1F1" height="56.4883" rx="2.5" ry="2.5" style="stroke:#181818;stroke-width:0.5;" width="116.7451" x="879.52" y="404.86"/><ellipse cx="894.52" cy="420.86" fill="#ADD1B2" rx="11" ry="11" style="stroke:#181818;stroke-width:1;"/><path d="M896.9931,427.0031 Q896.4121,427.3019 895.7729,427.4513 Q895.1338,427.6007 894.4282,427.6007 Q891.9214,427.6007 890.6015,425.9489 Q889.2817,424.297 889.2817,421.1759 Q889.2817,418.0465 890.6015,416.3947 Q891.9214,414.7428 894.4282,414.7428 Q895.1338,414.7428 895.7812,414.8922 Q896.4287,415.0416 896.9931,415.3405 L896.9931,418.0631 Q896.3623,417.4821 895.7688,417.2123 Q895.1753,416.9425 894.5444,416.9425 Q893.1997,416.9425 892.5149,418.0092 Q891.8301,419.0758 891.8301,421.1759 Q891.8301,423.2677 892.5149,424.3344 Q893.1997,425.401 894.5444,425.401 Q895.1753,425.401 895.7688,425.1312 Q896.3623,424.8615 896.9931,424.2804 Z " fill="#000000"/><text fill="#000000" font-family="sans-serif" font-size="14" lengthAdjust="spacing" textLength="84.7451" x="908.52" y="426.151">RandomWait</text><line style="stroke:#181818;stroke-width:0.5;" x1="880.52" x2="995.2651" y1="436.86" y2="436.86"/><text fill="#000000" font-family="sans-serif" font-size="14" lengthAdjust="spacing" textLength="76.501" x="885.52" y="454.3952">run(): None</text></g><!--class PwElement--><g class="entity" data-entity="PwElement" data-source-line="78" data-uid="ent0013" id="entity_PwElement"><rect fill="#F1F1F1" height="32" rx="2.5" ry="2.5" style="stroke:#181818;stroke-width:0.5;" width="104.7549" x="1429.51" y="242.91"/><ellipse cx="1444.51" cy="258.91" fill="#ADD1B2" rx="11" ry="11" style="stroke:#181818;stroke-width:1;"/><path d="M1446.9831,265.0531 Q1446.4021,265.3519 1445.7629,265.5013 Q1445.1238,265.6507 1444.4182,265.6507 Q1441.9114,265.6507 1440.5915,263.9989 Q1439.2717,262.347 1439.2717,259.2259 Q1439.2717,256.0965 1440.5915,254.4447 Q1441.9114,252.7928 1444.4182,252.7928 Q1445.1238,252.7928 1445.7712,252.9422 Q1446.4187,253.0916 1446.9831,253.3905 L1446.9831,256.1131 Q1446.3523,255.5321 1445.7588,255.2623 Q1445.1653,254.9925 1444.5344,254.9925 Q1443.1897,254.9925 1442.5049,256.0592 Q1441.8201,257.1258 1441.8201,259.2259 Q1441.8201,261.3177 1442.5049,262.3844 Q1443.1897,263.451 1444.5344,263.451 Q1445.1653,263.451 1445.7588,263.1812 Q1446.3523,262.9115 1446.9831,262.3304 Z " fill="#000000"/><text fill="#000000" font-family="sans-serif" font-size="14" lengthAdjust="spacing" textLength="72.7549" x="1458.51" y="264.201">PwElement</text></g><!--class PwFrame--><g class="entity" data-entity="PwFrame" data-source-line="80" data-uid="ent0014" id="entity_PwFrame"><rect fill="#F1F1F1" height="32" rx="2.5" ry="2.5" style="stroke:#181818;stroke-width:0.5;" width="92.3613" x="939.71" y="242.91"/><ellipse cx="954.71" cy="258.91" fill="#ADD1B2" rx="11" ry="11" style="stroke:#181818;stroke-width:1;"/><path d="M957.1831,265.0531 Q956.6021,265.3519 955.9629,265.5013 Q955.3238,265.6507 954.6182,265.6507 Q952.1114,265.6507 950.7915,263.9989 Q949.4717,262.347 949.4717,259.2259 Q949.4717,256.0965 950.7915,254.4447 Q952.1114,252.7928 954.6182,252.7928 Q955.3238,252.7928 955.9712,252.9422 Q956.6187,253.0916 957.1831,253.3905 L957.1831,256.1131 Q956.5523,255.5321 955.9588,255.2623 Q955.3653,254.9925 954.7344,254.9925 Q953.3897,254.9925 952.7049,256.0592 Q952.0201,257.1258 952.0201,259.2259 Q952.0201,261.3177 952.7049,262.3844 Q953.3897,263.451 954.7344,263.451 Q955.3653,263.451 955.9588,263.1812 Q956.5523,262.9115 957.1831,262.3304 Z " fill="#000000"/><text fill="#000000" font-family="sans-serif" font-size="14" lengthAdjust="spacing" textLength="60.3613" x="968.71" y="264.201">PwFrame</text></g><!--class PwHtml--><g class="entity" data-entity="PwHtml" data-source-line="82" data-uid="ent0015" id="entity_PwHtml"><rect fill="#F1F1F1" height="32" rx="2.5" ry="2.5" style="stroke:#181818;stroke-width:0.5;" width="83.167" x="1252.31" y="417.1"/><ellipse cx="1267.31" cy="433.1" fill="#ADD1B2" rx="11" ry="11" style="stroke:#181818;stroke-width:1;"/><path d="M1269.7831,439.2431 Q1269.2021,439.5419 1268.5629,439.6913 Q1267.9238,439.8407 1267.2182,439.8407 Q1264.7114,439.8407 1263.3915,438.1889 Q1262.0717,436.537 1262.0717,433.4159 Q1262.0717,430.2865 1263.3915,428.6347 Q1264.7114,426.9828 1267.2182,426.9828 Q1267.9238,426.9828 1268.5712,427.1322 Q1269.2187,427.2816 1269.7831,427.5805 L1269.7831,430.3031 Q1269.1523,429.7221 1268.5588,429.4523 Q1267.9653,429.1825 1267.3344,429.1825 Q1265.9897,429.1825 1265.3049,430.2492 Q1264.6201,431.3158 1264.6201,433.4159 Q1264.6201,435.5077 1265.3049,436.5744 Q1265.9897,437.641 1267.3344,437.641 Q1267.9653,437.641 1268.5588,437.3712 Q1269.1523,437.1015 1269.7831,436.5204 Z " fill="#000000"/><text fill="#000000" font-family="sans-serif" font-size="14" lengthAdjust="spacing" textLength="51.167" x="1281.31" y="438.391">PwHtml</text></g><!--class PwResponse--><g class="entity" data-entity="PwResponse" data-source-line="84" data-uid="ent0016" id="entity_PwResponse"><rect fill="#F1F1F1" height="32" rx="2.5" ry="2.5" style="stroke:#181818;stroke-width:0.5;" width="115.3506" x="1349.21" y="591.3"/><ellipse cx="1364.21" cy="607.3" fill="#ADD1B2" rx="11" ry="11" style="stroke:#181818;stroke-width:1;"/><path d="M1366.6831,613.4431 Q1366.1021,613.7419 1365.4629,613.8913 Q1364.8238,614.0407 1364.1182,614.0407 Q1361.6114,614.0407 1360.2915,612.3889 Q1358.9717,610.737 1358.9717,607.6159 Q1358.9717,604.4865 1360.2915,602.8347 Q1361.6114,601.1828 1364.1182,601.1828 Q1364.8238,601.1828 1365.4712,601.3322 Q1366.1187,601.4816 1366.6831,601.7805 L1366.6831,604.5031 Q1366.0523,603.9221 1365.4588,603.6523 Q1364.8653,603.3825 1364.2344,603.3825 Q1362.8897,603.3825 1362.2049,604.4492 Q1361.5201,605.5158 1361.5201,607.6159 Q1361.5201,609.7077 1362.2049,610.7744 Q1362.8897,611.841 1364.2344,611.841 Q1364.8653,611.841 1365.4588,611.5712 Q1366.0523,611.3015 1366.6831,610.7204 Z " fill="#000000"/><text fill="#000000" font-family="sans-serif" font-size="14" lengthAdjust="spacing" textLength="83.3506" x="1378.21" y="612.591">PwResponse</text></g><!--class PwPage--><g class="entity" data-entity="PwPage" data-source-line="86" data-uid="ent0017" id="entity_PwPage"><rect fill="#F1F1F1" height="32" rx="2.5" ry="2.5" style="stroke:#181818;stroke-width:0.5;" width="82.5244" x="890.63" y="773.74"/><ellipse cx="905.63" cy="789.74" fill="#ADD1B2" rx="11" ry="11" style="stroke:#181818;stroke-width:1;"/><path d="M908.1031,795.8831 Q907.5221,796.1819 906.8829,796.3313 Q906.2438,796.4807 905.5382,796.4807 Q903.0314,796.4807 901.7115,794.8289 Q900.3917,793.177 900.3917,790.0559 Q900.3917,786.9265 901.7115,785.2747 Q903.0314,783.6228 905.5382,783.6228 Q906.2438,783.6228 906.8912,783.7722 Q907.5387,783.9216 908.1031,784.2205 L908.1031,786.9431 Q907.4723,786.3621 906.8788,786.0923 Q906.2853,785.8225 905.6544,785.8225 Q904.3097,785.8225 903.6249,786.8892 Q902.9401,787.9558 902.9401,790.0559 Q902.9401,792.1477 903.6249,793.2144 Q904.3097,794.281 905.6544,794.281 Q906.2853,794.281 906.8788,794.0112 Q907.4723,793.7415 908.1031,793.1604 Z " fill="#000000"/><text fill="#000000" font-family="sans-serif" font-size="14" lengthAdjust="spacing" textLength="50.5244" x="919.63" y="795.031">PwPage</text></g><!--class LoggedPage--><g class="entity" data-entity="LoggedPage" data-source-line="87" data-uid="ent0018" id="entity_LoggedPage"><rect fill="#F1F1F1" height="32" rx="2.5" ry="2.5" style="stroke:#181818;stroke-width:0.5;" width="82.1348" x="373.82" y="773.74"/><ellipse cx="388.82" cy="789.74" fill="#ADD1B2" rx="11" ry="11" style="stroke:#181818;stroke-width:1;"/><path d="M391.2931,795.8831 Q390.7121,796.1819 390.0729,796.3313 Q389.4338,796.4807 388.7282,796.4807 Q386.2214,796.4807 384.9015,794.8289 Q383.5817,793.177 383.5817,790.0559 Q383.5817,786.9265 384.9015,785.2747 Q386.2214,783.6228 388.7282,783.6228 Q389.4338,783.6228 390.0812,783.7722 Q390.7287,783.9216 391.2931,784.2205 L391.2931,786.9431 Q390.6623,786.3621 390.0688,786.0923 Q389.4753,785.8225 388.8444,785.8225 Q387.4997,785.8225 386.8149,786.8892 Q386.1301,787.9558 386.1301,790.0559 Q386.1301,792.1477 386.8149,793.2144 Q387.4997,794.281 388.8444,794.281 Q389.4753,794.281 390.0688,794.0112 Q390.6623,793.7415 391.2931,793.1604 Z " fill="#000000"/><text fill="#000000" font-family="sans-serif" font-size="14" lengthAdjust="spacing" textLength="50.1348" x="402.82" y="795.031">Logged</text></g><!--class RetryPage--><g class="entity" data-entity="RetryPage" data-source-line="88" data-uid="ent0019" id="entity_RetryPage"><rect fill="#F1F1F1" height="32" rx="2.5" ry="2.5" style="stroke:#181818;stroke-width:0.5;" width="66.9316" x="1008.42" y="773.74"/><ellipse cx="1023.42" cy="789.74" fill="#ADD1B2" rx="11" ry="11" style="stroke:#181818;stroke-width:1;"/><path d="M1025.8931,795.8831 Q1025.3121,796.1819 1024.6729,796.3313 Q1024.0338,796.4807 1023.3282,796.4807 Q1020.8214,796.4807 1019.5015,794.8289 Q1018.1817,793.177 1018.1817,790.0559 Q1018.1817,786.9265 1019.5015,785.2747 Q1020.8214,783.6228 1023.3282,783.6228 Q1024.0338,783.6228 1024.6812,783.7722 Q1025.3287,783.9216 1025.8931,784.2205 L1025.8931,786.9431 Q1025.2623,786.3621 1024.6688,786.0923 Q1024.0753,785.8225 1023.4444,785.8225 Q1022.0997,785.8225 1021.4149,786.8892 Q1020.7301,787.9558 1020.7301,790.0559 Q1020.7301,792.1477 1021.4149,793.2144 Q1022.0997,794.281 1023.4444,794.281 Q1024.0753,794.281 1024.6688,794.0112 Q1025.2623,793.7415 1025.8931,793.1604 Z " fill="#000000"/><text fill="#000000" font-family="sans-serif" font-size="14" lengthAdjust="spacing" textLength="34.9316" x="1037.42" y="795.031">Retry</text></g><!--class Chromium--><g class="entity" data-entity="Chromium" data-source-line="90" data-uid="ent0020" id="entity_Chromium"><rect fill="#F1F1F1" height="32" rx="2.5" ry="2.5" style="stroke:#181818;stroke-width:0.5;" width="103.5791" x="500.1" y="902.72"/><ellipse cx="515.1" cy="918.72" fill="#ADD1B2" rx="11" ry="11" style="stroke:#181818;stroke-width:1;"/><path d="M517.5731,924.8631 Q516.9921,925.1619 516.3529,925.3113 Q515.7138,925.4607 515.0082,925.4607 Q512.5014,925.4607 511.1815,923.8089 Q509.8617,922.157 509.8617,919.0359 Q509.8617,915.9065 511.1815,914.2547 Q512.5014,912.6028 515.0082,912.6028 Q515.7138,912.6028 516.3612,912.7522 Q517.0087,912.9016 517.5731,913.2005 L517.5731,915.9231 Q516.9423,915.3421 516.3488,915.0723 Q515.7553,914.8025 515.1244,914.8025 Q513.7797,914.8025 513.0949,915.8692 Q512.4101,916.9358 512.4101,919.0359 Q512.4101,921.1277 513.0949,922.1944 Q513.7797,923.261 515.1244,923.261 Q515.7553,923.261 516.3488,922.9912 Q516.9423,922.7215 517.5731,922.1404 Z " fill="#000000"/><text fill="#000000" font-family="sans-serif" font-size="14" lengthAdjust="spacing" textLength="71.5791" x="529.1" y="924.011">Chromium</text></g><!--class Firefox--><g class="entity" data-entity="Firefox" data-source-line="91" data-uid="ent0021" id="entity_Firefox"><rect fill="#F1F1F1" height="32" rx="2.5" ry="2.5" style="stroke:#181818;stroke-width:0.5;" width="79.4141" x="638.18" y="902.72"/><ellipse cx="653.18" cy="918.72" fill="#ADD1B2" rx="11" ry="11" style="stroke:#181818;stroke-width:1;"/><path d="M655.6531,924.8631 Q655.0721,925.1619 654.4329,925.3113 Q653.7938,925.4607 653.0882,925.4607 Q650.5814,925.4607 649.2615,923.8089 Q647.9417,922.157 647.9417,919.0359 Q647.9417,915.9065 649.2615,914.2547 Q650.5814,912.6028 653.0882,912.6028 Q653.7938,912.6028 654.4412,912.7522 Q655.0887,912.9016 655.6531,913.2005 L655.6531,915.9231 Q655.0223,915.3421 654.4288,915.0723 Q653.8353,914.8025 653.2044,914.8025 Q651.8597,914.8025 651.1749,915.8692 Q650.4901,916.9358 650.4901,919.0359 Q650.4901,921.1277 651.1749,922.1944 Q651.8597,923.261 653.2044,923.261 Q653.8353,923.261 654.4288,922.9912 Q655.0223,922.7215 655.6531,922.1404 Z " fill="#000000"/><text fill="#000000" font-family="sans-serif" font-size="14" lengthAdjust="spacing" textLength="47.4141" x="667.18" y="924.011">Firefox</text></g><!--class Webkit--><g class="entity" data-entity="Webkit" data-source-line="92" data-uid="ent0022" id="entity_Webkit"><rect fill="#F1F1F1" height="32" rx="2.5" ry="2.5" style="stroke:#181818;stroke-width:0.5;" width="78.0537" x="752.86" y="902.72"/><ellipse cx="767.86" cy="918.72" fill="#ADD1B2" rx="11" ry="11" style="stroke:#181818;stroke-width:1;"/><path d="M770.3331,924.8631 Q769.7521,925.1619 769.1129,925.3113 Q768.4738,925.4607 767.7682,925.4607 Q765.2614,925.4607 763.9415,923.8089 Q762.6217,922.157 762.6217,919.0359 Q762.6217,915.9065 763.9415,914.2547 Q765.2614,912.6028 767.7682,912.6028 Q768.4738,912.6028 769.1212,912.7522 Q769.7687,912.9016 770.3331,913.2005 L770.3331,915.9231 Q769.7023,915.3421 769.1088,915.0723 Q768.5153,914.8025 767.8844,914.8025 Q766.5397,914.8025 765.8549,915.8692 Q765.1701,916.9358 765.1701,919.0359 Q765.1701,921.1277 765.8549,922.1944 Q766.5397,923.261 767.8844,923.261 Q768.5153,923.261 769.1088,922.9912 Q769.7023,922.7215 770.3331,922.1404 Z " fill="#000000"/><text fill="#000000" font-family="sans-serif" font-size="14" lengthAdjust="spacing" textLength="46.0537" x="781.86" y="924.011">Webkit</text></g><!--class Headed--><g class="entity" data-entity="Headed" data-source-line="93" data-uid="ent0023" id="entity_Headed"><rect fill="#F1F1F1" height="32" rx="2.5" ry="2.5" style="stroke:#181818;stroke-width:0.5;" width="83.2422" x="382.27" y="902.72"/><ellipse cx="397.27" cy="918.72" fill="#ADD1B2" rx="11" ry="11" style="stroke:#181818;stroke-width:1;"/><path d="M399.7431,924.8631 Q399.1621,925.1619 398.5229,925.3113 Q397.8838,925.4607 397.1782,925.4607 Q394.6714,925.4607 393.3515,923.8089 Q392.0317,922.157 392.0317,919.0359 Q392.0317,915.9065 393.3515,914.2547 Q394.6714,912.6028 397.1782,912.6028 Q397.8838,912.6028 398.5312,912.7522 Q399.1787,912.9016 399.7431,913.2005 L399.7431,915.9231 Q399.1123,915.3421 398.5188,915.0723 Q397.9253,914.8025 397.2944,914.8025 Q395.9497,914.8025 395.2649,915.8692 Q394.5801,916.9358 394.5801,919.0359 Q394.5801,921.1277 395.2649,922.1944 Q395.9497,923.261 397.2944,923.261 Q397.9253,923.261 398.5188,922.9912 Q399.1123,922.7215 399.7431,922.1404 Z " fill="#000000"/><text fill="#000000" font-family="sans-serif" font-size="14" lengthAdjust="spacing" textLength="51.2422" x="411.27" y="924.011">Headed</text></g><!--class LoggedBrowser--><g class="entity" data-entity="LoggedBrowser" data-source-line="94" data-uid="ent0024" id="entity_LoggedBrowser"><rect fill="#F1F1F1" height="32" rx="2.5" ry="2.5" style="stroke:#181818;stroke-width:0.5;" width="82.1348" x="232.82" y="902.72"/><ellipse cx="247.82" cy="918.72" fill="#ADD1B2" rx="11" ry="11" style="stroke:#181818;stroke-width:1;"/><path d="M250.2931,924.8631 Q249.7121,925.1619 249.0729,925.3113 Q248.4338,925.4607 247.7282,925.4607 Q245.2214,925.4607 243.9015,923.8089 Q242.5817,922.157 242.5817,919.0359 Q242.5817,915.9065 243.9015,914.2547 Q245.2214,912.6028 247.7282,912.6028 Q248.4338,912.6028 249.0812,912.7522 Q249.7287,912.9016 250.2931,913.2005 L250.2931,915.9231 Q249.6623,915.3421 249.0688,915.0723 Q248.4753,914.8025 247.8444,914.8025 Q246.4997,914.8025 245.8149,915.8692 Q245.1301,916.9358 245.1301,919.0359 Q245.1301,921.1277 245.8149,922.1944 Q246.4997,923.261 247.8444,923.261 Q248.4753,923.261 249.0688,922.9912 Q249.6623,922.7215 250.2931,922.1404 Z " fill="#000000"/><text fill="#000000" font-family="sans-serif" font-size="14" lengthAdjust="spacing" textLength="50.1348" x="261.82" y="924.011">Logged</text></g><!--class FileConfig--><g class="entity" data-entity="FileConfig" data-source-line="96" data-uid="ent0025" id="entity_FileConfig"><rect fill="#F1F1F1" height="32" rx="2.5" ry="2.5" style="stroke:#181818;stroke-width:0.5;" width="100.2979" x="1630.74" y="242.91"/><ellipse cx="1645.74" cy="258.91" fill="#ADD1B2" rx="11" ry="11" style="stroke:#181818;stroke-width:1;"/><path d="M1648.2131,265.0531 Q1647.6321,265.3519 1646.9929,265.5013 Q1646.3538,265.6507 1645.6482,265.6507 Q1643.1414,265.6507 1641.8215,263.9989 Q1640.5017,262.347 1640.5017,259.2259 Q1640.5017,256.0965 1641.8215,254.4447 Q1643.1414,252.7928 1645.6482,252.7928 Q1646.3538,252.7928 1647.0012,252.9422 Q1647.6487,253.0916 1648.2131,253.3905 L1648.2131,256.1131 Q1647.5823,255.5321 1646.9888,255.2623 Q1646.3953,254.9925 1645.7644,254.9925 Q1644.4197,254.9925 1643.7349,256.0592 Q1643.0501,257.1258 1643.0501,259.2259 Q1643.0501,261.3177 1643.7349,262.3844 Q1644.4197,263.451 1645.7644,263.451 Q1646.3953,263.451 1646.9888,263.1812 Q1647.5823,262.9115 1648.2131,262.3304 Z " fill="#000000"/><text fill="#000000" font-family="sans-serif" font-size="14" lengthAdjust="spacing" textLength="68.2979" x="1659.74" y="264.201">FileConfig</text></g><!--class FakeConfig--><g class="entity" data-entity="FakeConfig" data-source-line="97" data-uid="ent0026" id="entity_FakeConfig"><rect fill="#F1F1F1" height="32" rx="2.5" ry="2.5" style="stroke:#181818;stroke-width:0.5;" width="108.1182" x="1765.83" y="242.91"/><ellipse cx="1780.83" cy="258.91" fill="#ADD1B2" rx="11" ry="11" style="stroke:#181818;stroke-width:1;"/><path d="M1783.3031,265.0531 Q1782.7221,265.3519 1782.0829,265.5013 Q1781.4438,265.6507 1780.7382,265.6507 Q1778.2314,265.6507 1776.9115,263.9989 Q1775.5917,262.347 1775.5917,259.2259 Q1775.5917,256.0965 1776.9115,254.4447 Q1778.2314,252.7928 1780.7382,252.7928 Q1781.4438,252.7928 1782.0912,252.9422 Q1782.7387,253.0916 1783.3031,253.3905 L1783.3031,256.1131 Q1782.6723,255.5321 1782.0788,255.2623 Q1781.4853,254.9925 1780.8544,254.9925 Q1779.5097,254.9925 1778.8249,256.0592 Q1778.1401,257.1258 1778.1401,259.2259 Q1778.1401,261.3177 1778.8249,262.3844 Q1779.5097,263.451 1780.8544,263.451 Q1781.4853,263.451 1782.0788,263.1812 Q1782.6723,262.9115 1783.3031,262.3304 Z " fill="#000000"/><text fill="#000000" font-family="sans-serif" font-size="14" lengthAdjust="spacing" textLength="76.1182" x="1794.83" y="264.201">FakeConfig</text></g><!--class StdConsole--><g class="entity" data-entity="StdConsole" data-source-line="99" data-uid="ent0027" id="entity_StdConsole"><rect fill="#F1F1F1" height="32" rx="2.5" ry="2.5" style="stroke:#181818;stroke-width:0.5;" width="108.1455" x="230.82" y="773.74"/><ellipse cx="245.82" cy="789.74" fill="#ADD1B2" rx="11" ry="11" style="stroke:#181818;stroke-width:1;"/><path d="M248.2931,795.8831 Q247.7121,796.1819 247.0729,796.3313 Q246.4338,796.4807 245.7282,796.4807 Q243.2214,796.4807 241.9015,794.8289 Q240.5817,793.177 240.5817,790.0559 Q240.5817,786.9265 241.9015,785.2747 Q243.2214,783.6228 245.7282,783.6228 Q246.4338,783.6228 247.0812,783.7722 Q247.7287,783.9216 248.2931,784.2205 L248.2931,786.9431 Q247.6623,786.3621 247.0688,786.0923 Q246.4753,785.8225 245.8444,785.8225 Q244.4997,785.8225 243.8149,786.8892 Q243.1301,787.9558 243.1301,790.0559 Q243.1301,792.1477 243.8149,793.2144 Q244.4997,794.281 245.8444,794.281 Q246.4753,794.281 247.0688,794.0112 Q247.6623,793.7415 248.2931,793.1604 Z " fill="#000000"/><text fill="#000000" font-family="sans-serif" font-size="14" lengthAdjust="spacing" textLength="76.1455" x="259.82" y="795.031">StdConsole</text></g><!--class FakeConsole--><g class="entity" data-entity="FakeConsole" data-source-line="100" data-uid="ent0028" id="entity_FakeConsole"><rect fill="#F1F1F1" height="32" rx="2.5" ry="2.5" style="stroke:#181818;stroke-width:0.5;" width="117.7773" x="7" y="773.74"/><ellipse cx="22" cy="789.74" fill="#ADD1B2" rx="11" ry="11" style="stroke:#181818;stroke-width:1;"/><path d="M24.4731,795.8831 Q23.8921,796.1819 23.2529,796.3313 Q22.6138,796.4807 21.9082,796.4807 Q19.4014,796.4807 18.0815,794.8289 Q16.7617,793.177 16.7617,790.0559 Q16.7617,786.9265 18.0815,785.2747 Q19.4014,783.6228 21.9082,783.6228 Q22.6138,783.6228 23.2612,783.7722 Q23.9087,783.9216 24.4731,784.2205 L24.4731,786.9431 Q23.8423,786.3621 23.2488,786.0923 Q22.6553,785.8225 22.0244,785.8225 Q20.6797,785.8225 19.9949,786.8892 Q19.3101,787.9558 19.3101,790.0559 Q19.3101,792.1477 19.9949,793.2144 Q20.6797,794.281 22.0244,794.281 Q22.6553,794.281 23.2488,794.0112 Q23.8423,793.7415 24.4731,793.1604 Z " fill="#000000"/><text fill="#000000" font-family="sans-serif" font-size="14" lengthAdjust="spacing" textLength="85.7773" x="36" y="795.031">FakeConsole</text></g><!--class ContentText--><g class="entity" data-entity="ContentText" data-source-line="102" data-uid="ent0029" id="entity_ContentText"><rect fill="#F1F1F1" height="32" rx="2.5" ry="2.5" style="stroke:#181818;stroke-width:0.5;" width="116.4102" x="1110.68" y="773.74"/><ellipse cx="1125.68" cy="789.74" fill="#ADD1B2" rx="11" ry="11" style="stroke:#181818;stroke-width:1;"/><path d="M1128.1531,795.8831 Q1127.5721,796.1819 1126.9329,796.3313 Q1126.2938,796.4807 1125.5882,796.4807 Q1123.0814,796.4807 1121.7615,794.8289 Q1120.4417,793.177 1120.4417,790.0559 Q1120.4417,786.9265 1121.7615,785.2747 Q1123.0814,783.6228 1125.5882,783.6228 Q1126.2938,783.6228 1126.9412,783.7722 Q1127.5887,783.9216 1128.1531,784.2205 L1128.1531,786.9431 Q1127.5223,786.3621 1126.9288,786.0923 Q1126.3353,785.8225 1125.7044,785.8225 Q1124.3597,785.8225 1123.6749,786.8892 Q1122.9901,787.9558 1122.9901,790.0559 Q1122.9901,792.1477 1123.6749,793.2144 Q1124.3597,794.281 1125.7044,794.281 Q1126.3353,794.281 1126.9288,794.0112 Q1127.5223,793.7415 1128.1531,793.1604 Z " fill="#000000"/><text fill="#000000" font-family="sans-serif" font-size="14" lengthAdjust="spacing" textLength="84.4102" x="1139.68" y="795.031">ContentText</text></g><!--class LoggedContent--><g class="entity" data-entity="LoggedContent" data-source-line="103" data-uid="ent0030" id="entity_LoggedContent"><rect fill="#F1F1F1" height="32" rx="2.5" ry="2.5" style="stroke:#181818;stroke-width:0.5;" width="82.1348" x="773.82" y="773.74"/><ellipse cx="788.82" cy="789.74" fill="#ADD1B2" rx="11" ry="11" style="stroke:#181818;stroke-width:1;"/><path d="M791.2931,795.8831 Q790.7121,796.1819 790.0729,796.3313 Q789.4338,796.4807 788.7282,796.4807 Q786.2214,796.4807 784.9015,794.8289 Q783.5817,793.177 783.5817,790.0559 Q783.5817,786.9265 784.9015,785.2747 Q786.2214,783.6228 788.7282,783.6228 Q789.4338,783.6228 790.0812,783.7722 Q790.7287,783.9216 791.2931,784.2205 L791.2931,786.9431 Q790.6623,786.3621 790.0688,786.0923 Q789.4753,785.8225 788.8444,785.8225 Q787.4997,785.8225 786.8149,786.8892 Q786.1301,787.9558 786.1301,790.0559 Q786.1301,792.1477 786.8149,793.2144 Q787.4997,794.281 788.8444,794.281 Q789.4753,794.281 790.0688,794.0112 Q790.6623,793.7415 791.2931,793.1604 Z " fill="#000000"/><text fill="#000000" font-family="sans-serif" font-size="14" lengthAdjust="spacing" textLength="50.1348" x="802.82" y="795.031">Logged</text></g><!--class RetryContent--><g class="entity" data-entity="RetryContent" data-source-line="104" data-uid="ent0031" id="entity_RetryContent"><rect fill="#F1F1F1" height="32" rx="2.5" ry="2.5" style="stroke:#181818;stroke-width:0.5;" width="66.9316" x="1262.42" y="773.74"/><ellipse cx="1277.42" cy="789.74" fill="#ADD1B2" rx="11" ry="11" style="stroke:#181818;stroke-width:1;"/><path d="M1279.8931,795.8831 Q1279.3121,796.1819 1278.6729,796.3313 Q1278.0338,796.4807 1277.3282,796.4807 Q1274.8214,796.4807 1273.5015,794.8289 Q1272.1817,793.177 1272.1817,790.0559 Q1272.1817,786.9265 1273.5015,785.2747 Q1274.8214,783.6228 1277.3282,783.6228 Q1278.0338,783.6228 1278.6812,783.7722 Q1279.3287,783.9216 1279.8931,784.2205 L1279.8931,786.9431 Q1279.2623,786.3621 1278.6688,786.0923 Q1278.0753,785.8225 1277.4444,785.8225 Q1276.0997,785.8225 1275.4149,786.8892 Q1274.7301,787.9558 1274.7301,790.0559 Q1274.7301,792.1477 1275.4149,793.2144 Q1276.0997,794.281 1277.4444,794.281 Q1278.0753,794.281 1278.6688,794.0112 Q1279.2623,793.7415 1279.8931,793.1604 Z " fill="#000000"/><text fill="#000000" font-family="sans-serif" font-size="14" lengthAdjust="spacing" textLength="34.9316" x="1291.42" y="795.031">Retry</text></g><!--reverse link Element to PwElement--><g class="link" data-entity-1="Element" data-entity-2="PwElement" data-source-line="106" data-uid="lnk32" id="link_Element_PwElement"><path codeLine="106" d="M1463.7449,147.4624 C1470.2549,187.1324 1475.37,218.25 1479.37,242.6" fill="none" id="Element-backto-PwElement" style="stroke:#181818;stroke-width:1;stroke-dasharray:7.0,7.0;"/><polygon fill="none" points="1460.83,129.7,1457.8241,148.434,1469.6657,146.4908,1460.83,129.7" style="stroke:#181818;stroke-width:1;"/></g><!--reverse link Frame to PwFrame--><g class="link" data-entity-1="Frame" data-entity-2="PwFrame" data-source-line="108" data-uid="lnk33" id="link_Frame_PwFrame"><path codeLine="108" d="M1069.1061,128.1339 C1042.4461,169.7239 1013.55,214.78 995.66,242.67" fill="none" id="Frame-backto-PwFrame" style="stroke:#181818;stroke-width:1;stroke-dasharray:7.0,7.0;"/><polygon fill="none" points="1078.82,112.98,1064.0548,124.8959,1074.1574,131.3718,1078.82,112.98" style="stroke:#181818;stroke-width:1;"/></g><!--reverse link Html to PwHtml--><g class="link" data-entity-1="Html" data-entity-2="PwHtml" data-source-line="110" data-uid="lnk34" id="link_Html_PwHtml"><path codeLine="110" d="M1262.1536,345.3645 C1274.0236,377.8145 1280.98,396.83 1288.26,416.72" fill="none" id="Html-backto-PwHtml" style="stroke:#181818;stroke-width:1;stroke-dasharray:7.0,7.0;"/><polygon fill="none" points="1255.97,328.46,1256.5187,347.4257,1267.7884,343.3033,1255.97,328.46" style="stroke:#181818;stroke-width:1;"/></g><!--reverse link Response to PwResponse--><g class="link" data-entity-1="Response" data-entity-2="PwResponse" data-source-line="112" data-uid="lnk35" id="link_Response_PwResponse"><path codeLine="112" d="M1232.843,476.6195 C1238.593,480.3895 1229.33,474.28 1234.89,477.84 C1277.58,505.17 1291.44,507.28 1331.89,537.84 C1353.98,554.52 1377.18,576.49 1391.82,590.99" fill="none" id="Response-backto-PwResponse" style="stroke:#181818;stroke-width:1;stroke-dasharray:7.0,7.0;"/><polygon fill="none" points="1217.79,466.75,1229.5531,481.6372,1236.1328,471.6019,1217.79,466.75" style="stroke:#181818;stroke-width:1;"/></g><!--reverse link Page to PwPage--><g class="link" data-entity-1="Page" data-entity-2="PwPage" data-source-line="114" data-uid="lnk36" id="link_Page_PwPage"><path codeLine="114" d="M888.0225,693.3828 C904.2425,728.6428 915.08,752.2 924.86,773.47" fill="none" id="Page-backto-PwPage" style="stroke:#181818;stroke-width:1;stroke-dasharray:7.0,7.0;"/><polygon fill="none" points="880.5,677.03,882.5715,695.8902,893.4734,690.8753,880.5,677.03" style="stroke:#181818;stroke-width:1;"/></g><!--reverse link Page to LoggedPage--><g class="link" data-entity-1="Page" data-entity-2="LoggedPage" data-source-line="115" data-uid="lnk37" id="link_Page_LoggedPage"><path codeLine="115" d="M692.3015,646.3812 C618.8115,667.3612 546.25,693.79 472.89,736.77 C456.09,746.61 439.84,761.82 428.83,773.25" fill="none" id="Page-backto-LoggedPage" style="stroke:#181818;stroke-width:1;stroke-dasharray:7.0,7.0;"/><polygon fill="none" points="709.61,641.44,690.6544,640.6117,693.9486,652.1507,709.61,641.44" style="stroke:#181818;stroke-width:1;"/></g><!--reverse link Page to RetryPage--><g class="link" data-entity-1="Page" data-entity-2="RetryPage" data-source-line="116" data-uid="lnk38" id="link_Page_RetryPage"><path codeLine="116" d="M940.0187,689.2253 C961.0887,708.2853 970.39,717.08 990.89,736.77 C1003.47,748.85 1017.31,763.01 1027.39,773.5" fill="none" id="Page-backto-RetryPage" style="stroke:#181818;stroke-width:1;stroke-dasharray:7.0,7.0;"/><polygon fill="none" points="926.67,677.15,935.9936,693.6748,944.0438,684.7757,926.67,677.15" style="stroke:#181818;stroke-width:1;"/></g><!--reverse link Browser to Chromium--><g class="link" data-entity-1="Browser" data-entity-2="Chromium" data-source-line="118" data-uid="lnk39" id="link_Browser_Chromium"><path codeLine="118" d="M580.9047,859.2468 C570.3347,880.5668 566.89,887.48 559.58,902.22" fill="none" id="Browser-backto-Chromium" style="stroke:#181818;stroke-width:1;stroke-dasharray:7.0,7.0;"/><polygon fill="none" points="588.9,843.12,575.5291,856.5817,586.2803,861.9119,588.9,843.12" style="stroke:#181818;stroke-width:1;"/></g><!--reverse link Browser to Firefox--><g class="link" data-entity-1="Browser" data-entity-2="Firefox" data-source-line="119" data-uid="lnk40" id="link_Browser_Firefox"><path codeLine="119" d="M648.8753,859.2468 C659.4453,880.5668 662.88,887.48 670.2,902.22" fill="none" id="Browser-backto-Firefox" style="stroke:#181818;stroke-width:1;stroke-dasharray:7.0,7.0;"/><polygon fill="none" points="640.88,843.12,643.4997,861.9119,654.2509,856.5817,640.88,843.12" style="stroke:#181818;stroke-width:1;"/></g><!--reverse link Browser to Webkit--><g class="link" data-entity-1="Browser" data-entity-2="Webkit" data-source-line="120" data-uid="lnk41" id="link_Browser_Webkit"><path codeLine="120" d="M702.5242,853.6144 C732.2342,874.9344 749.73,887.48 770.28,902.22" fill="none" id="Browser-backto-Webkit" style="stroke:#181818;stroke-width:1;stroke-dasharray:7.0,7.0;"/><polygon fill="none" points="687.9,843.12,699.0261,858.4891,706.0223,848.7397,687.9,843.12" style="stroke:#181818;stroke-width:1;"/></g><!--reverse link Browser to LoggedBrowser--><g class="link" data-entity-1="Browser" data-entity-2="LoggedBrowser" data-source-line="121" data-uid="lnk42" id="link_Browser_LoggedBrowser"><path codeLine="121" d="M473.4622,843.403 C411.8222,866.363 358.39,886.26 315.07,902.38" fill="none" id="Browser-backto-LoggedBrowser" style="stroke:#181818;stroke-width:1;stroke-dasharray:7.0,7.0;"/><polygon fill="none" points="490.33,837.12,471.3678,837.7804,475.5565,849.0256,490.33,837.12" style="stroke:#181818;stroke-width:1;"/></g><!--reverse link Browser to Headed--><g class="link" data-entity-1="Browser" data-entity-2="Headed" data-source-line="122" data-uid="lnk43" id="link_Browser_Headed"><path codeLine="122" d="M521.1116,853.0873 C489.0516,874.4073 469.38,887.48 447.2,902.22" fill="none" id="Browser-backto-Headed" style="stroke:#181818;stroke-width:1;stroke-dasharray:7.0,7.0;"/><polygon fill="none" points="536.1,843.12,517.7892,848.0912,524.434,858.0835,536.1,843.12" style="stroke:#181818;stroke-width:1;"/></g><!--reverse link Config to FileConfig--><g class="link" data-entity-1="Config" data-entity-2="FileConfig" data-source-line="124" data-uid="lnk44" id="link_Config_FileConfig"><path codeLine="124" d="M1702.3515,122.9364 C1695.7515,164.4164 1688.03,212.97 1683.31,242.67" fill="none" id="Config-backto-FileConfig" style="stroke:#181818;stroke-width:1;stroke-dasharray:7.0,7.0;"/><polygon fill="none" points="1705.18,105.16,1696.4261,121.9936,1708.277,123.8792,1705.18,105.16" style="stroke:#181818;stroke-width:1;"/></g><!--reverse link Config to FakeConfig--><g class="link" data-entity-1="Config" data-entity-2="FakeConfig" data-source-line="125" data-uid="lnk45" id="link_Config_FakeConfig"><path codeLine="125" d="M1740.6532,120.7466 C1764.6132,162.2266 1793.93,212.97 1811.09,242.67" fill="none" id="Config-backto-FakeConfig" style="stroke:#181818;stroke-width:1;stroke-dasharray:7.0,7.0;"/><polygon fill="none" points="1731.65,105.16,1735.4577,123.7477,1745.8488,117.7455,1731.65,105.16" style="stroke:#181818;stroke-width:1;"/></g><!--reverse link Console to StdConsole--><g class="link" data-entity-1="Console" data-entity-2="StdConsole" data-source-line="127" data-uid="lnk46" id="link_Console_StdConsole"><path codeLine="127" d="M284.89,695.03 C284.89,730.29 284.89,752.2 284.89,773.47" fill="none" id="Console-backto-StdConsole" style="stroke:#181818;stroke-width:1;stroke-dasharray:7.0,7.0;"/><polygon fill="none" points="284.89,677.03,278.89,695.03,290.89,695.03,284.89,677.03" style="stroke:#181818;stroke-width:1;"/></g><!--reverse link Console to FakeConsole--><g class="link" data-entity-1="Console" data-entity-2="FakeConsole" data-source-line="128" data-uid="lnk47" id="link_Console_FakeConsole"><path codeLine="128" d="M187.5786,688.4768 C144.7886,723.7368 110.25,752.2 84.43,773.47" fill="none" id="Console-backto-FakeConsole" style="stroke:#181818;stroke-width:1;stroke-dasharray:7.0,7.0;"/><polygon fill="none" points="201.47,677.03,183.763,683.8464,191.3942,693.1073,201.47,677.03" style="stroke:#181818;stroke-width:1;"/></g><!--reverse link Content to ContentText--><g class="link" data-entity-1="Content" data-entity-2="ContentText" data-source-line="130" data-uid="lnk48" id="link_Content_ContentText"><path codeLine="130" d="M1168.89,661.95 C1168.89,701.39 1168.89,745.12 1168.89,773.51" fill="none" id="Content-backto-ContentText" style="stroke:#181818;stroke-width:1;stroke-dasharray:7.0,7.0;"/><polygon fill="none" points="1168.89,643.95,1162.89,661.95,1174.89,661.95,1168.89,643.95" style="stroke:#181818;stroke-width:1;"/></g><!--reverse link Content to LoggedContent--><g class="link" data-entity-1="Content" data-entity-2="LoggedContent" data-source-line="131" data-uid="lnk49" id="link_Content_LoggedContent"><path codeLine="131" d="M1065.8238,651.1051 C985.3638,684.7551 891.69,724.71 872.89,736.77 C856.5,747.28 840.19,762.41 829.07,773.64" fill="none" id="Content-backto-LoggedContent" style="stroke:#181818;stroke-width:1;stroke-dasharray:7.0,7.0;"/><polygon fill="none" points="1082.43,644.16,1063.5088,645.5696,1068.1388,656.6405,1082.43,644.16" style="stroke:#181818;stroke-width:1;"/></g><!--reverse link Content to RetryContent--><g class="link" data-entity-1="Content" data-entity-2="RetryContent" data-source-line="132" data-uid="lnk50" id="link_Content_RetryContent"><path codeLine="132" d="M1204.3404,658.6695 C1232.1004,698.1095 1265.18,745.12 1285.17,773.51" fill="none" id="Content-backto-RetryContent" style="stroke:#181818;stroke-width:1;stroke-dasharray:7.0,7.0;"/><polygon fill="none" points="1193.98,643.95,1199.4339,662.1229,1209.2469,655.216,1193.98,643.95" style="stroke:#181818;stroke-width:1;"/></g><!--reverse link Frame to Html--><g class="link" data-entity-1="Frame" data-entity-2="Html" data-source-line="134" data-uid="lnk51" id="link_Frame_Html"><path codeLine="134" d="M1138.9444,117.9947 C1153.8244,140.6447 1169.04,163.79 1185.77,189.25" fill="none" id="Frame-backto-Html" style="stroke:#181818;stroke-width:1;stroke-dasharray:7.0,7.0;"/><polygon fill="#181818" points="1135.65,112.98,1137.2485,122.6983,1138.3953,117.1589,1143.9347,118.3057,1135.65,112.98" style="stroke:#181818;stroke-width:1;"/></g><!--reverse link Element to Html--><g class="link" data-entity-1="Element" data-entity-2="Html" data-source-line="135" data-uid="lnk52" id="link_Element_Html"><path codeLine="135" d="M1375.8155,133.6059 C1353.6955,152.5759 1333.68,169.75 1310.95,189.25" fill="none" id="Element-backto-Html" style="stroke:#181818;stroke-width:1;stroke-dasharray:7.0,7.0;"/><polygon fill="#181818" points="1380.37,129.7,1370.9343,132.5226,1376.5746,132.9549,1376.1422,138.5953,1380.37,129.7" style="stroke:#181818;stroke-width:1;"/></g><!--reverse link Response to Page--><g class="link" data-entity-1="Response" data-entity-2="Page" data-source-line="136" data-uid="lnk53" id="link_Response_Page"><path codeLine="136" d="M1115.0062,463.1029 C1076.8862,483.6129 1027.31,510.29 976.88,537.43" fill="none" id="Response-backto-Page" style="stroke:#181818;stroke-width:1;stroke-dasharray:7.0,7.0;"/><polygon fill="#181818" points="1120.29,460.26,1110.4691,461.0018,1115.8869,462.6291,1114.2596,468.0468,1120.29,460.26" style="stroke:#181818;stroke-width:1;"/></g><!--reverse link Page to Browser--><g class="link" data-entity-1="Page" data-entity-2="Browser" data-source-line="137" data-uid="lnk54" id="link_Page_Browser"><path codeLine="137" d="M755.0081,680.6933 C729.4281,700.4133 706.72,717.93 682.66,736.48" fill="none" id="Page-backto-Browser" style="stroke:#181818;stroke-width:1;stroke-dasharray:7.0,7.0;"/><polygon fill="#181818" points="759.76,677.03,750.19,679.357,755.8001,680.0827,755.0744,685.6929,759.76,677.03" style="stroke:#181818;stroke-width:1;"/></g><!--reverse link RandomWait to Page--><g class="link" data-entity-1="RandomWait" data-entity-2="Page" data-source-line="138" data-uid="lnk55" id="link_RandomWait_Page"><path codeLine="138" d="M920.834,467.0996 C910.264,487.5396 898.16,510.97 884.47,537.46" fill="none" id="RandomWait-backto-Page" style="stroke:#181818;stroke-width:1;stroke-dasharray:7.0,7.0;"/><polygon fill="#181818" points="923.59,461.77,915.9029,467.927,921.2933,466.2113,923.009,471.6017,923.59,461.77" style="stroke:#181818;stroke-width:1;"/></g><!--reverse link RandomInt to Page--><g class="link" data-entity-1="RandomInt" data-entity-2="Page" data-source-line="139" data-uid="lnk56" id="link_RandomInt_Page"><path codeLine="139" d="M754.086,474.6491 C768.206,494.2591 782.69,514.38 799.42,537.6" fill="none" id="RandomInt-backto-Page" style="stroke:#181818;stroke-width:1;stroke-dasharray:7.0,7.0;"/><polygon fill="#181818" points="750.58,469.78,752.5929,479.421,753.5016,473.8376,759.085,474.7464,750.58,469.78" style="stroke:#181818;stroke-width:1;"/></g><!--reverse link Response to Content--><g class="link" data-entity-1="Response" data-entity-2="Content" data-source-line="141" data-uid="lnk57" id="link_Response_Content"><path codeLine="141" d="M1168.89,484 C1168.89,512.6 1168.89,543.45 1168.89,570.32" fill="none" id="Response-backto-Content" style="stroke:#181818;stroke-width:1;stroke-dasharray:7.0,7.0;"/><polygon fill="#181818" points="1168.89,478,1164.89,487,1168.89,483,1172.89,487,1168.89,478" style="stroke:#181818;stroke-width:1;"/></g><!--reverse link Html to Response--><g class="link" data-entity-1="Html" data-entity-2="Response" data-source-line="142" data-uid="lnk58" id="link_Html_Response"><path codeLine="142" d="M1204.1765,334.1049 C1196.9465,354.1749 1191.27,369.93 1184.75,388.04" fill="none" id="Html-backto-Response" style="stroke:#181818;stroke-width:1;"/><polygon fill="#181818" points="1206.21,328.46,1199.3965,335.5717,1204.5154,333.1641,1206.923,338.283,1206.21,328.46" style="stroke:#181818;stroke-width:1;"/></g><!--reverse link Console to LoggedBrowser--><g class="link" data-entity-1="Console" data-entity-2="LoggedBrowser" data-source-line="144" data-uid="lnk59" id="link_Console_LoggedBrowser"><path codeLine="144" d="M234.9448,682.4697 C224.6848,701.0097 218.22,716.36 212.89,736.77 C200.99,782.33 197.12,798.35 212.89,842.72 C221.37,866.6 241.07,888.4 255.8,902.27" fill="none" id="Console-backto-LoggedBrowser" style="stroke:#181818;stroke-width:1;"/><polygon fill="#181818" points="237.85,677.22,229.9924,683.1578,235.429,681.5948,236.992,687.0314,237.85,677.22" style="stroke:#181818;stroke-width:1;"/></g><!--reverse link Console to LoggedPage--><g class="link" data-entity-1="Console" data-entity-2="LoggedPage" data-source-line="145" data-uid="lnk60" id="link_Console_LoggedPage"><path codeLine="145" d="M337.917,681.8984 C363.317,717.1584 388.56,752.2 403.88,773.47" fill="none" id="Console-backto-LoggedPage" style="stroke:#181818;stroke-width:1;"/><polygon fill="#181818" points="334.41,677.03,336.4249,686.6705,337.3325,681.087,342.9161,681.9946,334.41,677.03" style="stroke:#181818;stroke-width:1;"/></g><!--reverse link Console to LoggedContent--><g class="link" data-entity-1="Console" data-entity-2="LoggedContent" data-source-line="146" data-uid="lnk61" id="link_Console_LoggedContent"><path codeLine="146" d="M389.8002,622.5354 C488.9102,638.8654 637.53,671.84 756.89,736.77 C774.23,746.2 790.66,761.78 801.57,773.43" fill="none" id="Console-backto-LoggedContent" style="stroke:#181818;stroke-width:1;"/><polygon fill="#181818" points="383.88,621.56,392.11,626.97,388.8135,622.3729,393.4106,619.0764,383.88,621.56" style="stroke:#181818;stroke-width:1;"/></g><!--SRC=[pLLBRzim3BxxLmWzUKDQx5niXoveqGB3KBG5UXY6GB6PH8Wi6PBS9dlyzr7KmrRIzBmUKl4ZHLByIDfkXUgvuHrh9BVsoZaZbeE3kqQhH_4BsATg8rfWqFLkpphebc1iLGdbmAnu0-nQGWVAiTyLmpy7ErT_k6JMcInR3qXXtGz4VnBy8gnOIl2AfTQIi4QAPkkHxre18SfjQg5Qs5qoZ8UQ6AlwEqtW1fE761w2GMtnq3XjA94P-pXZ6suNFXb29gxyhUL-OJHcut_66mhTdh1sODr2j7NyVsXLf7VhElbVPKUrrfYVAfY25ou7xg26NM_0Mg5LkdcbzcIoyfKkiqSjrRzyymFONYkRMB6Eku6wGCJu6ooAbtrn21YCJCaKdkxvEdcPc7XHzw2yd68HsFF1Gj53ZTG7Y06fUNjqrJPOO5aRhbhTBLwvG38UI7Z6SshK8hclHhzQC34_IcW3l9LOlM3Elh0dCy3x-NWcfm_hySarFZRLrvUWZ3lNQYNMCMnwJ2iQ6h2PfojCcUKlKBVSyKDj2d_erMABHRUzGKtTuLCmV4ebvqnQgKxgfLw_ftldfdMj7eh6H0ICURCxvg6DtsuG0okXS6mYoIFTnyL2fxJz8k5tsQMV2UnunusZvfqnK6tQHgcPoSYUigB5XyUZABwjOXWpg7h2IR2wVqqJcu4mQbcawSbIxkQCKES4uUoRNg-XFMFSid2SAX_0cJtfw4Igg9jlZEx4q4NnHc1PzIvApx3S2XU5MsnzQ4_6YyDIPKSIGXydW6yJ4957ryQUB4q8IUc53dZ2tNaoShGvyTYahTA7xFEVYujfySFt9QAH0Lhg4Geiv9KNqP4DMc4HfSgEm8I94PnGa1OCuPc90as4563afS1A5WfLPAwAUoNwpVmKy8Ibj318CI6hm0lEqho6zqoeAnGbQuMgP2mour_WESW49c3an1T_h39AgGwJKSn6unB8KEag9H2wuFny_92CRqUqhFYnXZmVmydxFm00]--></g></svg>