<svg xmlns="http://www.w3.org/2000/svg" xmlns:xlink="http://www.w3.org/1999/xlink" contentStyleType="text/css" data-diagram-type="CLASS" height="925px" preserveAspectRatio="none" style="width:1905px;height:925px;background:#FFFFFF;" version="1.1" viewBox="0 0 1905 925" width="1905px" zoomAndPan="magnify"><defs/><g><!--class Element--><g id="elem_Element"><rect codeLine="5" fill="#F1F1F1" height="122.4414" id="Element" rx="2.5" ry="2.5" style="stroke:#181818;stroke-width:0.5;" width="171.5713" x="1353.1" y="7"/><ellipse cx="1407.5209" cy="23" fill="#B4A7E5" rx="11" ry="11" style="stroke:#181818;stroke-width:1;"/><path d="M1403.9486,19.2651 L1403.9486,17.1069 L1411.328,17.1069 L1411.328,19.2651 L1408.8627,19.2651 L1408.8627,27.3418 L1411.328,27.3418 L1411.328,29.5 L1403.9486,29.5 L1403.9486,27.3418 L1406.414,27.3418 L1406.414,19.2651 Z " fill="#000000"/><text fill="#000000" font-family="sans-serif" font-size="14" font-style="italic" lengthAdjust="spacing" textLength="54.2295" x="1428.0209" y="28.291">Element</text><line style="stroke:#181818;stroke-width:0.5;" x1="1354.1" x2="1523.6713" y1="39" y2="39"/><text fill="#000000" font-family="sans-serif" font-size="14" lengthAdjust="spacing" textLength="62.9248" x="1359.1" y="56.5352">text(): str</text><text fill="#000000" font-family="sans-serif" font-size="14" lengthAdjust="spacing" textLength="99.6338" x="1359.1" y="73.0234">texts(): list[str]</text><text fill="#000000" font-family="sans-serif" font-size="14" lengthAdjust="spacing" textLength="91.1572" x="1359.1" y="89.5117">visible(): bool</text><text fill="#000000" font-family="sans-serif" font-size="14" lengthAdjust="spacing" textLength="84.0137" x="1359.1" y="106">click(): None</text><text fill="#000000" font-family="sans-serif" font-size="14" lengthAdjust="spacing" textLength="159.5713" x="1359.1" y="122.4883">nth(index: int): Element</text></g><!--class Html--><g id="elem_Html"><rect codeLine="13" fill="#F1F1F1" height="122.4414" id="Html" rx="2.5" ry="2.5" style="stroke:#181818;stroke-width:0.5;" width="327.957" x="1066.91" y="189.44"/><ellipse cx="1210.3177" cy="205.44" fill="#B4A7E5" rx="11" ry="11" style="stroke:#181818;stroke-width:1;"/><path d="M1206.7454,201.7051 L1206.7454,199.5469 L1214.1248,199.5469 L1214.1248,201.7051 L1211.6595,201.7051 L1211.6595,209.7818 L1214.1248,209.7818 L1214.1248,211.94 L1206.7454,211.94 L1206.7454,209.7818 L1209.2108,209.7818 L1209.2108,201.7051 Z " fill="#000000"/><text fill="#000000" font-family="sans-serif" font-size="14" font-style="italic" lengthAdjust="spacing" textLength="32.6416" x="1230.8177" y="210.731">Html</text><line style="stroke:#181818;stroke-width:0.5;" x1="1067.91" x2="1393.867" y1="221.44" y2="221.44"/><text fill="#000000" font-family="sans-serif" font-size="14" lengthAdjust="spacing" textLength="315.957" x="1072.91" y="238.9752">element(selector: str, *, has_text: str): Element</text><text fill="#000000" font-family="sans-serif" font-size="14" lengthAdjust="spacing" textLength="263.3477" x="1072.91" y="255.4634">by_role(role: str, *, name: str): Element</text><text fill="#000000" font-family="sans-serif" font-size="14" lengthAdjust="spacing" textLength="212.8164" x="1072.91" y="271.9517">by_test_id(test_id: str): Element</text><text fill="#000000" font-family="sans-serif" font-size="14" lengthAdjust="spacing" textLength="87.4863" x="1072.91" y="288.44">content(): str</text><text fill="#000000" font-family="sans-serif" font-size="14" lengthAdjust="spacing" textLength="201.2021" x="1072.91" y="304.9283">evaluate(expression: str): Any</text></g><!--class Response--><g id="elem_Response"><rect codeLine="21" fill="#F1F1F1" height="89.4648" id="Response" rx="2.5" ry="2.5" style="stroke:#181818;stroke-width:0.5;" width="96.8252" x="1120.48" y="371.88"/><ellipse cx="1135.48" cy="387.88" fill="#B4A7E5" rx="11" ry="11" style="stroke:#181818;stroke-width:1;"/><path d="M1131.9077,384.1451 L1131.9077,381.9869 L1139.2871,381.9869 L1139.2871,384.1451 L1136.8218,384.1451 L1136.8218,392.2218 L1139.2871,392.2218 L1139.2871,394.38 L1131.9077,394.38 L1131.9077,392.2218 L1134.3731,392.2218 L1134.3731,384.1451 Z " fill="#000000"/><text fill="#000000" font-family="sans-serif" font-size="14" font-style="italic" lengthAdjust="spacing" textLength="64.8252" x="1149.48" y="393.171">Response</text><line style="stroke:#181818;stroke-width:0.5;" x1="1121.48" x2="1216.3052" y1="403.88" y2="403.88"/><text fill="#000000" font-family="sans-serif" font-size="14" lengthAdjust="spacing" textLength="77.1025" x="1126.48" y="421.4152">status(): int</text><text fill="#000000" font-family="sans-serif" font-size="14" lengthAdjust="spacing" textLength="81.6484" x="1126.48" y="437.9034">html(): Html</text><text fill="#000000" font-family="sans-serif" font-size="14" lengthAdjust="spacing" textLength="54.5303" x="1126.48" y="454.3917">url(): str</text></g><!--class Page--><g id="elem_Page"><rect codeLine="27" fill="#F1F1F1" height="138.9297" id="Page" rx="2.5" ry="2.5" style="stroke:#181818;stroke-width:0.5;" width="277.7881" x="709.99" y="521.35"/><ellipse cx="828.6345" cy="537.35" fill="#B4A7E5" rx="11" ry="11" style="stroke:#181818;stroke-width:1;"/><path d="M825.0623,533.6151 L825.0623,531.4569 L832.4417,531.4569 L832.4417,533.6151 L829.9763,533.6151 L829.9763,541.6918 L832.4417,541.6918 L832.4417,543.85 L825.0623,543.85 L825.0623,541.6918 L827.5276,541.6918 L827.5276,533.6151 Z " fill="#000000"/><text fill="#000000" font-family="sans-serif" font-size="14" font-style="italic" lengthAdjust="spacing" textLength="31.999" x="849.1345" y="542.641">Page</text><line style="stroke:#181818;stroke-width:0.5;" x1="710.99" x2="986.7781" y1="553.35" y2="553.35"/><text fill="#000000" font-family="sans-serif" font-size="14" lengthAdjust="spacing" textLength="54.5303" x="715.99" y="570.8852">url(): str</text><text fill="#000000" font-family="sans-serif" font-size="14" lengthAdjust="spacing" textLength="116.6895" x="715.99" y="587.3734">open(): Response</text><text fill="#000000" font-family="sans-serif" font-size="14" lengthAdjust="spacing" textLength="93.5635" x="715.99" y="603.8617">pause(): None</text><text fill="#000000" font-family="sans-serif" font-size="14" lengthAdjust="spacing" textLength="88.1494" x="715.99" y="620.35">close(): None</text><text fill="#000000" font-family="sans-serif" font-size="14" lengthAdjust="spacing" textLength="125.5078" x="715.99" y="636.8383">reload(): Response</text><text fill="#000000" font-family="sans-serif" font-size="14" lengthAdjust="spacing" textLength="265.7881" x="715.99" y="653.3266">scroll(random_wait: RandomWait): bool</text></g><!--class Browser--><g id="elem_Browser"><rect codeLine="36" fill="#F1F1F1" height="105.9531" id="Browser" rx="2.5" ry="2.5" style="stroke:#181818;stroke-width:0.5;" width="248.4209" x="490.68" y="720.28"/><ellipse cx="583.7239" cy="736.28" fill="#B4A7E5" rx="11" ry="11" style="stroke:#181818;stroke-width:1;"/><path d="M580.1517,732.5451 L580.1517,730.3869 L587.5311,730.3869 L587.5311,732.5451 L585.0657,732.5451 L585.0657,740.6218 L587.5311,740.6218 L587.5311,742.78 L580.1517,742.78 L580.1517,740.6218 L582.617,740.6218 L582.617,732.5451 Z " fill="#000000"/><text fill="#000000" font-family="sans-serif" font-size="14" font-style="italic" lengthAdjust="spacing" textLength="53.833" x="604.2239" y="741.571">Browser</text><line style="stroke:#181818;stroke-width:0.5;" x1="491.68" x2="738.1009" y1="752.28" y2="752.28"/><text fill="#000000" font-family="sans-serif" font-size="14" lengthAdjust="spacing" textLength="236.4209" x="496.68" y="769.8152">open(headless: bool = True): None</text><text fill="#000000" font-family="sans-serif" font-size="14" lengthAdjust="spacing" textLength="88.1494" x="496.68" y="786.3034">close(): None</text><text fill="#000000" font-family="sans-serif" font-size="14" lengthAdjust="spacing" textLength="73.3564" x="496.68" y="802.7917">name(): str</text><text fill="#000000" font-family="sans-serif" font-size="14" lengthAdjust="spacing" textLength="128.4609" x="496.68" y="819.28">page(url: str): Page</text></g><!--class Config--><g id="elem_Config"><rect codeLine="43" fill="#F1F1F1" height="72.9766" id="Config" rx="2.5" ry="2.5" style="stroke:#181818;stroke-width:0.5;" width="220.6738" x="1638.55" y="31.73"/><ellipse cx="1722.1877" cy="47.73" fill="#B4A7E5" rx="11" ry="11" style="stroke:#181818;stroke-width:1;"/><path d="M1718.6154,43.9951 L1718.6154,41.8369 L1725.9948,41.8369 L1725.9948,43.9951 L1723.5295,43.9951 L1723.5295,52.0718 L1725.9948,52.0718 L1725.9948,54.23 L1718.6154,54.23 L1718.6154,52.0718 L1721.0808,52.0718 L1721.0808,43.9951 Z " fill="#000000"/><text fill="#000000" font-family="sans-serif" font-size="14" font-style="italic" lengthAdjust="spacing" textLength="44.8984" x="1742.6877" y="53.021">Config</text><line style="stroke:#181818;stroke-width:0.5;" x1="1639.55" x2="1858.2238" y1="63.73" y2="63.73"/><text fill="#000000" font-family="sans-serif" font-size="14" lengthAdjust="spacing" textLength="134.1484" x="1644.55" y="81.2652">load(): dict[str, Any]</text><text fill="#000000" font-family="sans-serif" font-size="14" lengthAdjust="spacing" textLength="208.6738" x="1644.55" y="97.7534">save(data: dict[str, Any]): None</text></g><!--class Console--><g id="elem_Console"><rect codeLine="48" fill="#F1F1F1" height="138.9297" id="Console" rx="2.5" ry="2.5" style="stroke:#181818;stroke-width:0.5;" width="197.0078" x="186.38" y="521.35"/><ellipse cx="253.3551" cy="537.35" fill="#B4A7E5" rx="11" ry="11" style="stroke:#181818;stroke-width:1;"/><path d="M249.7828,533.6151 L249.7828,531.4569 L257.1622,531.4569 L257.1622,533.6151 L254.6969,533.6151 L254.6969,541.6918 L257.1622,541.6918 L257.1622,543.85 L249.7828,543.85 L249.7828,541.6918 L252.2482,541.6918 L252.2482,533.6151 Z " fill="#000000"/><text fill="#000000" font-family="sans-serif" font-size="14" font-style="italic" lengthAdjust="spacing" textLength="54.5576" x="273.8551" y="542.641">Console</text><line style="stroke:#181818;stroke-width:0.5;" x1="187.38" x2="382.3878" y1="553.35" y2="553.35"/><text fill="#000000" font-family="sans-serif" font-size="14" lengthAdjust="spacing" textLength="172.2725" x="192.38" y="570.8852">print(message: str): None</text><text fill="#000000" font-family="sans-serif" font-size="14" lengthAdjust="spacing" textLength="185.0078" x="192.38" y="587.3734">println(message: str): None</text><text fill="#000000" font-family="sans-serif" font-size="14" lengthAdjust="spacing" textLength="161.1367" x="192.38" y="603.8617">log(message: str): None</text><text fill="#000000" font-family="sans-serif" font-size="14" lengthAdjust="spacing" textLength="173.8721" x="192.38" y="620.35">logln(message: str): None</text><text fill="#000000" font-family="sans-serif" font-size="14" lengthAdjust="spacing" textLength="79.7754" x="192.38" y="636.8383">stdout(): str</text><text fill="#000000" font-family="sans-serif" font-size="14" lengthAdjust="spacing" textLength="76.5078" x="192.38" y="653.3266">stderr(): str</text></g><!--class Content--><g id="elem_Content"><rect codeLine="57" fill="#F1F1F1" height="72.9766" id="Content" rx="2.5" ry="2.5" style="stroke:#181818;stroke-width:0.5;" width="291.5557" x="1023.11" y="554.32"/><ellipse cx="1137.6701" cy="570.32" fill="#B4A7E5" rx="11" ry="11" style="stroke:#181818;stroke-width:1;"/><path d="M1134.0978,566.5851 L1134.0978,564.4269 L1141.4772,564.4269 L1141.4772,566.5851 L1139.0119,566.5851 L1139.0119,574.6618 L1141.4772,574.6618 L1141.4772,576.82 L1134.0978,576.82 L1134.0978,574.6618 L1136.5631,574.6618 L1136.5631,566.5851 Z " fill="#000000"/><text fill="#000000" font-family="sans-serif" font-size="14" font-style="italic" lengthAdjust="spacing" textLength="53.9355" x="1158.1701" y="575.611">Content</text><line style="stroke:#181818;stroke-width:0.5;" x1="1024.11" x2="1313.6657" y1="586.32" y2="586.32"/><text fill="#000000" font-family="sans-serif" font-size="14" lengthAdjust="spacing" textLength="54.5303" x="1029.11" y="603.8552">url(): str</text><text fill="#000000" font-family="sans-serif" font-size="14" lengthAdjust="spacing" textLength="279.5557" x="1029.11" y="620.3434">refine(response: Response): dict[str, Any]</text></g><!--class RandomInt--><g id="elem_RandomInt"><rect codeLine="62" fill="#F1F1F1" height="72.9766" id="RandomInt" rx="2.5" ry="2.5" style="stroke:#181818;stroke-width:0.5;" width="239.0488" x="605.36" y="380.13"/><ellipse cx="683.7785" cy="396.13" fill="#ADD1B2" rx="11" ry="11" style="stroke:#181818;stroke-width:1;"/><path d="M686.2516,402.2731 Q685.6705,402.5719 685.0314,402.7213 Q684.3922,402.8707 683.6867,402.8707 Q681.1798,402.8707 679.86,401.2189 Q678.5402,399.567 678.5402,396.4459 Q678.5402,393.3165 679.86,391.6647 Q681.1798,390.0128 683.6867,390.0128 Q684.3922,390.0128 685.0397,390.1622 Q685.6871,390.3116 686.2516,390.6105 L686.2516,393.3331 Q685.6207,392.7521 685.0272,392.4823 Q684.4337,392.2125 683.8029,392.2125 Q682.4581,392.2125 681.7733,393.2792 Q681.0885,394.3458 681.0885,396.4459 Q681.0885,398.5377 681.7733,399.6044 Q682.4581,400.671 683.8029,400.671 Q684.4337,400.671 685.0272,400.4012 Q685.6207,400.1315 686.2516,399.5504 Z " fill="#000000"/><text fill="#000000" font-family="sans-serif" font-size="14" lengthAdjust="spacing" textLength="73.7119" x="704.2785" y="401.421">RandomInt</text><line style="stroke:#181818;stroke-width:0.5;" x1="606.36" x2="843.4088" y1="412.13" y2="412.13"/><text fill="#000000" font-family="sans-serif" font-size="14" lengthAdjust="spacing" textLength="190.3398" x="611.36" y="429.6652">value(start: int, end: int): int</text><text fill="#000000" font-family="sans-serif" font-size="14" lengthAdjust="spacing" textLength="227.0488" x="611.36" y="446.1534">values(start: int, end: int): list[int]</text></g><!--class RandomWait--><g id="elem_RandomWait"><rect codeLine="67" fill="#F1F1F1" height="56.4883" id="RandomWait" rx="2.5" ry="2.5" style="stroke:#181818;stroke-width:0.5;" width="116.7451" x="879.52" y="388.37"/><ellipse cx="894.52" cy="404.37" fill="#ADD1B2" rx="11" ry="11" style="stroke:#181818;stroke-width:1;"/><path d="M896.9931,410.5131 Q896.4121,410.8119 895.7729,410.9613 Q895.1338,411.1107 894.4282,411.1107 Q891.9214,411.1107 890.6015,409.4589 Q889.2817,407.807 889.2817,404.6859 Q889.2817,401.5565 890.6015,399.9047 Q891.9214,398.2528 894.4282,398.2528 Q895.1338,398.2528 895.7812,398.4022 Q896.4287,398.5516 896.9931,398.8505 L896.9931,401.5731 Q896.3623,400.9921 895.7688,400.7223 Q895.1753,400.4525 894.5444,400.4525 Q893.1997,400.4525 892.5149,401.5192 Q891.8301,402.5858 891.8301,404.6859 Q891.8301,406.7777 892.5149,407.8444 Q893.1997,408.911 894.5444,408.911 Q895.1753,408.911 895.7688,408.6412 Q896.3623,408.3715 896.9931,407.7904 Z " fill="#000000"/><text fill="#000000" font-family="sans-serif" font-size="14" lengthAdjust="spacing" textLength="84.7451" x="908.52" y="409.661">RandomWait</text><line style="stroke:#181818;stroke-width:0.5;" x1="880.52" x2="995.2651" y1="420.37" y2="420.37"/><text fill="#000000" font-family="sans-serif" font-size="14" lengthAdjust="spacing" textLength="76.501" x="885.52" y="437.9052">run(): None</text></g><!--class PwElement--><g id="elem_PwElement"><rect codeLine="71" fill="#F1F1F1" height="32" id="PwElement" rx="2.5" ry="2.5" style="stroke:#181818;stroke-width:0.5;" width="104.7549" x="1429.51" y="234.66"/><ellipse cx="1444.51" cy="250.66" fill="#ADD1B2" rx="11" ry="11" style="stroke:#181818;stroke-width:1;"/><path d="M1446.9831,256.8031 Q1446.4021,257.1019 1445.7629,257.2513 Q1445.1238,257.4007 1444.4182,257.4007 Q1441.9114,257.4007 1440.5915,255.7489 Q1439.2717,254.097 1439.2717,250.9759 Q1439.2717,247.8465 1440.5915,246.1947 Q1441.9114,244.5428 1444.4182,244.5428 Q1445.1238,244.5428 1445.7712,244.6922 Q1446.4187,244.8416 1446.9831,245.1405 L1446.9831,247.8631 Q1446.3523,247.2821 1445.7588,247.0123 Q1445.1653,246.7425 1444.5344,246.7425 Q1443.1897,246.7425 1442.5049,247.8092 Q1441.8201,248.8758 1441.8201,250.9759 Q1441.8201,253.0677 1442.5049,254.1344 Q1443.1897,255.201 1444.5344,255.201 Q1445.1653,255.201 1445.7588,254.9312 Q1446.3523,254.6615 1446.9831,254.0804 Z " fill="#000000"/><text fill="#000000" font-family="sans-serif" font-size="14" lengthAdjust="spacing" textLength="72.7549" x="1458.51" y="255.951">PwElement</text></g><!--class PwHtml--><g id="elem_PwHtml"><rect codeLine="73" fill="#F1F1F1" height="32" id="PwHtml" rx="2.5" ry="2.5" style="stroke:#181818;stroke-width:0.5;" width="83.167" x="1252.31" y="400.61"/><ellipse cx="1267.31" cy="416.61" fill="#ADD1B2" rx="11" ry="11" style="stroke:#181818;stroke-width:1;"/><path d="M1269.7831,422.7531 Q1269.2021,423.0519 1268.5629,423.2013 Q1267.9238,423.3507 1267.2182,423.3507 Q1264.7114,423.3507 1263.3915,421.6989 Q1262.0717,420.047 1262.0717,416.9259 Q1262.0717,413.7965 1263.3915,412.1447 Q1264.7114,410.4928 1267.2182,410.4928 Q1267.9238,410.4928 1268.5712,410.6422 Q1269.2187,410.7916 1269.7831,411.0905 L1269.7831,413.8131 Q1269.1523,413.2321 1268.5588,412.9623 Q1267.9653,412.6925 1267.3344,412.6925 Q1265.9897,412.6925 1265.3049,413.7592 Q1264.6201,414.8258 1264.6201,416.9259 Q1264.6201,419.0177 1265.3049,420.0844 Q1265.9897,421.151 1267.3344,421.151 Q1267.9653,421.151 1268.5588,420.8812 Q1269.1523,420.6115 1269.7831,420.0304 Z " fill="#000000"/><text fill="#000000" font-family="sans-serif" font-size="14" lengthAdjust="spacing" textLength="51.167" x="1281.31" y="421.901">PwHtml</text></g><!--class PwResponse--><g id="elem_PwResponse"><rect codeLine="75" fill="#F1F1F1" height="32" id="PwResponse" rx="2.5" ry="2.5" style="stroke:#181818;stroke-width:0.5;" width="115.3506" x="1349.21" y="574.81"/><ellipse cx="1364.21" cy="590.81" fill="#ADD1B2" rx="11" ry="11" style="stroke:#181818;stroke-width:1;"/><path d="M1366.6831,596.9531 Q1366.1021,597.2519 1365.4629,597.4013 Q1364.8238,597.5507 1364.1182,597.5507 Q1361.6114,597.5507 1360.2915,595.8989 Q1358.9717,594.247 1358.9717,591.1259 Q1358.9717,587.9965 1360.2915,586.3447 Q1361.6114,584.6928 1364.1182,584.6928 Q1364.8238,584.6928 1365.4712,584.8422 Q1366.1187,584.9916 1366.6831,585.2905 L1366.6831,588.0131 Q1366.0523,587.4321 1365.4588,587.1623 Q1364.8653,586.8925 1364.2344,586.8925 Q1362.8897,586.8925 1362.2049,587.9592 Q1361.5201,589.0258 1361.5201,591.1259 Q1361.5201,593.2177 1362.2049,594.2844 Q1362.8897,595.351 1364.2344,595.351 Q1364.8653,595.351 1365.4588,595.0812 Q1366.0523,594.8115 1366.6831,594.2304 Z " fill="#000000"/><text fill="#000000" font-family="sans-serif" font-size="14" lengthAdjust="spacing" textLength="83.3506" x="1378.21" y="596.101">PwResponse</text></g><!--class PwPage--><g id="elem_PwPage"><rect codeLine="77" fill="#F1F1F1" height="32" id="PwPage" rx="2.5" ry="2.5" style="stroke:#181818;stroke-width:0.5;" width="82.5244" x="890.63" y="757.25"/><ellipse cx="905.63" cy="773.25" fill="#ADD1B2" rx="11" ry="11" style="stroke:#181818;stroke-width:1;"/><path d="M908.1031,779.3931 Q907.5221,779.6919 906.8829,779.8413 Q906.2438,779.9907 905.5382,779.9907 Q903.0314,779.9907 901.7115,778.3389 Q900.3917,776.687 900.3917,773.5659 Q900.3917,770.4365 901.7115,768.7847 Q903.0314,767.1328 905.5382,767.1328 Q906.2438,767.1328 906.8912,767.2822 Q907.5387,767.4316 908.1031,767.7305 L908.1031,770.4531 Q907.4723,769.8721 906.8788,769.6023 Q906.2853,769.3325 905.6544,769.3325 Q904.3097,769.3325 903.6249,770.3992 Q902.9401,771.4658 902.9401,773.5659 Q902.9401,775.6577 903.6249,776.7244 Q904.3097,777.791 905.6544,777.791 Q906.2853,777.791 906.8788,777.5212 Q907.4723,777.2515 908.1031,776.6704 Z " fill="#000000"/><text fill="#000000" font-family="sans-serif" font-size="14" lengthAdjust="spacing" textLength="50.5244" x="919.63" y="778.541">PwPage</text></g><!--class LoggedPage--><g id="elem_LoggedPage"><rect codeLine="78" fill="#F1F1F1" height="32" id="LoggedPage" rx="2.5" ry="2.5" style="stroke:#181818;stroke-width:0.5;" width="82.1348" x="373.82" y="757.25"/><ellipse cx="388.82" cy="773.25" fill="#ADD1B2" rx="11" ry="11" style="stroke:#181818;stroke-width:1;"/><path d="M391.2931,779.3931 Q390.7121,779.6919 390.0729,779.8413 Q389.4338,779.9907 388.7282,779.9907 Q386.2214,779.9907 384.9015,778.3389 Q383.5817,776.687 383.5817,773.5659 Q383.5817,770.4365 384.9015,768.7847 Q386.2214,767.1328 388.7282,767.1328 Q389.4338,767.1328 390.0812,767.2822 Q390.7287,767.4316 391.2931,767.7305 L391.2931,770.4531 Q390.6623,769.8721 390.0688,769.6023 Q389.4753,769.3325 388.8444,769.3325 Q387.4997,769.3325 386.8149,770.3992 Q386.1301,771.4658 386.1301,773.5659 Q386.1301,775.6577 386.8149,776.7244 Q387.4997,777.791 388.8444,777.791 Q389.4753,777.791 390.0688,777.5212 Q390.6623,777.2515 391.2931,776.6704 Z " fill="#000000"/><text fill="#000000" font-family="sans-serif" font-size="14" lengthAdjust="spacing" textLength="50.1348" x="402.82" y="778.541">Logged</text></g><!--class RetryPage--><g id="elem_RetryPage"><rect codeLine="79" fill="#F1F1F1" height="32" id="RetryPage" rx="2.5" ry="2.5" style="stroke:#181818;stroke-width:0.5;" width="66.9316" x="1008.42" y="757.25"/><ellipse cx="1023.42" cy="773.25" fill="#ADD1B2" rx="11" ry="11" style="stroke:#181818;stroke-width:1;"/><path d="M1025.8931,779.3931 Q1025.3121,779.6919 1024.6729,779.8413 Q1024.0338,779.9907 1023.3282,779.9907 Q1020.8214,779.9907 1019.5015,778.3389 Q1018.1817,776.687 1018.1817,773.5659 Q1018.1817,770.4365 1019.5015,768.7847 Q1020.8214,767.1328 1023.3282,767.1328 Q1024.0338,767.1328 1024.6812,767.2822 Q1025.3287,767.4316 1025.8931,767.7305 L1025.8931,770.4531 Q1025.2623,769.8721 1024.6688,769.6023 Q1024.0753,769.3325 1023.4444,769.3325 Q1022.0997,769.3325 1021.4149,770.3992 Q1020.7301,771.4658 1020.7301,773.5659 Q1020.7301,775.6577 1021.4149,776.7244 Q1022.0997,777.791 1023.4444,777.791 Q1024.0753,777.791 1024.6688,777.5212 Q1025.2623,777.2515 1025.8931,776.6704 Z " fill="#000000"/><text fill="#000000" font-family="sans-serif" font-size="14" lengthAdjust="spacing" textLength="34.9316" x="1037.42" y="778.541">Retry</text></g><!--class Chromium--><g id="elem_Chromium"><rect codeLine="81" fill="#F1F1F1" height="32" id="Chromium" rx="2.5" ry="2.5" style="stroke:#181818;stroke-width:0.5;" width="103.5791" x="500.1" y="886.23"/><ellipse cx="515.1" cy="902.23" fill="#ADD1B2" rx="11" ry="11" style="stroke:#181818;stroke-width:1;"/><path d="M517.5731,908.3731 Q516.9921,908.6719 516.3529,908.8213 Q515.7138,908.9707 515.0082,908.9707 Q512.5014,908.9707 511.1815,907.3189 Q509.8617,905.667 509.8617,902.5459 Q509.8617,899.4165 511.1815,897.7647 Q512.5014,896.1128 515.0082,896.1128 Q515.7138,896.1128 516.3612,896.2622 Q517.0087,896.4116 517.5731,896.7105 L517.5731,899.4331 Q516.9423,898.8521 516.3488,898.5823 Q515.7553,898.3125 515.1244,898.3125 Q513.7797,898.3125 513.0949,899.3792 Q512.4101,900.4458 512.4101,902.5459 Q512.4101,904.6377 513.0949,905.7044 Q513.7797,906.771 515.1244,906.771 Q515.7553,906.771 516.3488,906.5012 Q516.9423,906.2315 517.5731,905.6504 Z " fill="#000000"/><text fill="#000000" font-family="sans-serif" font-size="14" lengthAdjust="spacing" textLength="71.5791" x="529.1" y="907.521">Chromium</text></g><!--class Firefox--><g id="elem_Firefox"><rect codeLine="82" fill="#F1F1F1" height="32" id="Firefox" rx="2.5" ry="2.5" style="stroke:#181818;stroke-width:0.5;" width="79.4141" x="638.18" y="886.23"/><ellipse cx="653.18" cy="902.23" fill="#ADD1B2" rx="11" ry="11" style="stroke:#181818;stroke-width:1;"/><path d="M655.6531,908.3731 Q655.0721,908.6719 654.4329,908.8213 Q653.7938,908.9707 653.0882,908.9707 Q650.5814,908.9707 649.2615,907.3189 Q647.9417,905.667 647.9417,902.5459 Q647.9417,899.4165 649.2615,897.7647 Q650.5814,896.1128 653.0882,896.1128 Q653.7938,896.1128 654.4412,896.2622 Q655.0887,896.4116 655.6531,896.7105 L655.6531,899.4331 Q655.0223,898.8521 654.4288,898.5823 Q653.8353,898.3125 653.2044,898.3125 Q651.8597,898.3125 651.1749,899.3792 Q650.4901,900.4458 650.4901,902.5459 Q650.4901,904.6377 651.1749,905.7044 Q651.8597,906.771 653.2044,906.771 Q653.8353,906.771 654.4288,906.5012 Q655.0223,906.2315 655.6531,905.6504 Z " fill="#000000"/><text fill="#000000" font-family="sans-serif" font-size="14" lengthAdjust="spacing" textLength="47.4141" x="667.18" y="907.521">Firefox</text></g><!--class Webkit--><g id="elem_Webkit"><rect codeLine="83" fill="#F1F1F1" height="32" id="Webkit" rx="2.5" ry="2.5" style="stroke:#181818;stroke-width:0.5;" width="78.0537" x="752.86" y="886.23"/><ellipse cx="767.86" cy="902.23" fill="#ADD1B2" rx="11" ry="11" style="stroke:#181818;stroke-width:1;"/><path d="M770.3331,908.3731 Q769.7521,908.6719 769.1129,908.8213 Q768.4738,908.9707 767.7682,908.9707 Q765.2614,908.9707 763.9415,907.3189 Q762.6217,905.667 762.6217,902.5459 Q762.6217,899.4165 763.9415,897.7647 Q765.2614,896.1128 767.7682,896.1128 Q768.4738,896.1128 769.1212,896.2622 Q769.7687,896.4116 770.3331,896.7105 L770.3331,899.4331 Q769.7023,898.8521 769.1088,898.5823 Q768.5153,898.3125 767.8844,898.3125 Q766.5397,898.3125 765.8549,899.3792 Q765.1701,900.4458 765.1701,902.5459 Q765.1701,904.6377 765.8549,905.7044 Q766.5397,906.771 767.8844,906.771 Q768.5153,906.771 769.1088,906.5012 Q769.7023,906.2315 770.3331,905.6504 Z " fill="#000000"/><text fill="#000000" font-family="sans-serif" font-size="14" lengthAdjust="spacing" textLength="46.0537" x="781.86" y="907.521">Webkit</text></g><!--class Headed--><g id="elem_Headed"><rect codeLine="84" fill="#F1F1F1" height="32" id="Headed" rx="2.5" ry="2.5" style="stroke:#181818;stroke-width:0.5;" width="83.2422" x="382.27" y="886.23"/><ellipse cx="397.27" cy="902.23" fill="#ADD1B2" rx="11" ry="11" style="stroke:#181818;stroke-width:1;"/><path d="M399.7431,908.3731 Q399.1621,908.6719 398.5229,908.8213 Q397.8838,908.9707 397.1782,908.9707 Q394.6714,908.9707 393.3515,907.3189 Q392.0317,905.667 392.0317,902.5459 Q392.0317,899.4165 393.3515,897.7647 Q394.6714,896.1128 397.1782,896.1128 Q397.8838,896.1128 398.5312,896.2622 Q399.1787,896.4116 399.7431,896.7105 L399.7431,899.4331 Q399.1123,898.8521 398.5188,898.5823 Q397.9253,898.3125 397.2944,898.3125 Q395.9497,898.3125 395.2649,899.3792 Q394.5801,900.4458 394.5801,902.5459 Q394.5801,904.6377 395.2649,905.7044 Q395.9497,906.771 397.2944,906.771 Q397.9253,906.771 398.5188,906.5012 Q399.1123,906.2315 399.7431,905.6504 Z " fill="#000000"/><text fill="#000000" font-family="sans-serif" font-size="14" lengthAdjust="spacing" textLength="51.2422" x="411.27" y="907.521">Headed</text></g><!--class LoggedBrowser--><g id="elem_LoggedBrowser"><rect codeLine="85" fill="#F1F1F1" height="32" id="LoggedBrowser" rx="2.5" ry="2.5" style="stroke:#181818;stroke-width:0.5;" width="82.1348" x="232.82" y="886.23"/><ellipse cx="247.82" cy="902.23" fill="#ADD1B2" rx="11" ry="11" style="stroke:#181818;stroke-width:1;"/><path d="M250.2931,908.3731 Q249.7121,908.6719 249.0729,908.8213 Q248.4338,908.9707 247.7282,908.9707 Q245.2214,908.9707 243.9015,907.3189 Q242.5817,905.667 242.5817,902.5459 Q242.5817,899.4165 243.9015,897.7647 Q245.2214,896.1128 247.7282,896.1128 Q248.4338,896.1128 249.0812,896.2622 Q249.7287,896.4116 250.2931,896.7105 L250.2931,899.4331 Q249.6623,898.8521 249.0688,898.5823 Q248.4753,898.3125 247.8444,898.3125 Q246.4997,898.3125 245.8149,899.3792 Q245.1301,900.4458 245.1301,902.5459 Q245.1301,904.6377 245.8149,905.7044 Q246.4997,906.771 247.8444,906.771 Q248.4753,906.771 249.0688,906.5012 Q249.6623,906.2315 250.2931,905.6504 Z " fill="#000000"/><text fill="#000000" font-family="sans-serif" font-size="14" lengthAdjust="spacing" textLength="50.1348" x="261.82" y="907.521">Logged</text></g><!--class FileConfig--><g id="elem_FileConfig"><rect codeLine="87" fill="#F1F1F1" height="32" id="FileConfig" rx="2.5" ry="2.5" style="stroke:#181818;stroke-width:0.5;" width="100.2979" x="1655.74" y="234.66"/><ellipse cx="1670.74" cy="250.66" fill="#ADD1B2" rx="11" ry="11" style="stroke:#181818;stroke-width:1;"/><path d="M1673.2131,256.8031 Q1672.6321,257.1019 1671.9929,257.2513 Q1671.3538,257.4007 1670.6482,257.4007 Q1668.1414,257.4007 1666.8215,255.7489 Q1665.5017,254.097 1665.5017,250.9759 Q1665.5017,247.8465 1666.8215,246.1947 Q1668.1414,244.5428 1670.6482,244.5428 Q1671.3538,244.5428 1672.0012,244.6922 Q1672.6487,244.8416 1673.2131,245.1405 L1673.2131,247.8631 Q1672.5823,247.2821 1671.9888,247.0123 Q1671.3953,246.7425 1670.7644,246.7425 Q1669.4197,246.7425 1668.7349,247.8092 Q1668.0501,248.8758 1668.0501,250.9759 Q1668.0501,253.0677 1668.7349,254.1344 Q1669.4197,255.201 1670.7644,255.201 Q1671.3953,255.201 1671.9888,254.9312 Q1672.5823,254.6615 1673.2131,254.0804 Z " fill="#000000"/><text fill="#000000" font-family="sans-serif" font-size="14" lengthAdjust="spacing" textLength="68.2979" x="1684.74" y="255.951">FileConfig</text></g><!--class FakeConfig--><g id="elem_FakeConfig"><rect codeLine="88" fill="#F1F1F1" height="32" id="FakeConfig" rx="2.5" ry="2.5" style="stroke:#181818;stroke-width:0.5;" width="108.1182" x="1790.83" y="234.66"/><ellipse cx="1805.83" cy="250.66" fill="#ADD1B2" rx="11" ry="11" style="stroke:#181818;stroke-width:1;"/><path d="M1808.3031,256.8031 Q1807.7221,257.1019 1807.0829,257.2513 Q1806.4438,257.4007 1805.7382,257.4007 Q1803.2314,257.4007 1801.9115,255.7489 Q1800.5917,254.097 1800.5917,250.9759 Q1800.5917,247.8465 1801.9115,246.1947 Q1803.2314,244.5428 1805.7382,244.5428 Q1806.4438,244.5428 1807.0912,244.6922 Q1807.7387,244.8416 1808.3031,245.1405 L1808.3031,247.8631 Q1807.6723,247.2821 1807.0788,247.0123 Q1806.4853,246.7425 1805.8544,246.7425 Q1804.5097,246.7425 1803.8249,247.8092 Q1803.1401,248.8758 1803.1401,250.9759 Q1803.1401,253.0677 1803.8249,254.1344 Q1804.5097,255.201 1805.8544,255.201 Q1806.4853,255.201 1807.0788,254.9312 Q1807.6723,254.6615 1808.3031,254.0804 Z " fill="#000000"/><text fill="#000000" font-family="sans-serif" font-size="14" lengthAdjust="spacing" textLength="76.1182" x="1819.83" y="255.951">FakeConfig</text></g><!--class StdConsole--><g id="elem_StdConsole"><rect codeLine="90" fill="#F1F1F1" height="32" id="StdConsole" rx="2.5" ry="2.5" style="stroke:#181818;stroke-width:0.5;" width="108.1455" x="230.82" y="757.25"/><ellipse cx="245.82" cy="773.25" fill="#ADD1B2" rx="11" ry="11" style="stroke:#181818;stroke-width:1;"/><path d="M248.2931,779.3931 Q247.7121,779.6919 247.0729,779.8413 Q246.4338,779.9907 245.7282,779.9907 Q243.2214,779.9907 241.9015,778.3389 Q240.5817,776.687 240.5817,773.5659 Q240.5817,770.4365 241.9015,768.7847 Q243.2214,767.1328 245.7282,767.1328 Q246.4338,767.1328 247.0812,767.2822 Q247.7287,767.4316 248.2931,767.7305 L248.2931,770.4531 Q247.6623,769.8721 247.0688,769.6023 Q246.4753,769.3325 245.8444,769.3325 Q244.4997,769.3325 243.8149,770.3992 Q243.1301,771.4658 243.1301,773.5659 Q243.1301,775.6577 243.8149,776.7244 Q244.4997,777.791 245.8444,777.791 Q246.4753,777.791 247.0688,777.5212 Q247.6623,777.2515 248.2931,776.6704 Z " fill="#000000"/><text fill="#000000" font-family="sans-serif" font-size="14" lengthAdjust="spacing" textLength="76.1455" x="259.82" y="778.541">StdConsole</text></g><!--class FakeConsole--><g id="elem_FakeConsole"><rect codeLine="91" fill="#F1F1F1" height="32" id="FakeConsole" rx="2.5" ry="2.5" style="stroke:#181818;stroke-width:0.5;" width="117.7773" x="7" y="757.25"/><ellipse cx="22" cy="773.25" fill="#ADD1B2" rx="11" ry="11" style="stroke:#181818;stroke-width:1;"/><path d="M24.4731,779.3931 Q23.8921,779.6919 23.2529,779.8413 Q22.6138,779.9907 21.9082,779.9907 Q19.4014,779.9907 18.0815,778.3389 Q16.7617,776.687 16.7617,773.5659 Q16.7617,770.4365 18.0815,768.7847 Q19.4014,767.1328 21.9082,767.1328 Q22.6138,767.1328 23.2612,767.2822 Q23.9087,767.4316 24.4731,767.7305 L24.4731,770.4531 Q23.8423,769.8721 23.2488,769.6023 Q22.6553,769.3325 22.0244,769.3325 Q20.6797,769.3325 19.9949,770.3992 Q19.3101,771.4658 19.3101,773.5659 Q19.3101,775.6577 19.9949,776.7244 Q20.6797,777.791 22.0244,777.791 Q22.6553,777.791 23.2488,777.5212 Q23.8423,777.2515 24.4731,776.6704 Z " fill="#000000"/><text fill="#000000" font-family="sans-serif" font-size="14" lengthAdjust="spacing" textLength="85.7773" x="36" y="778.541">FakeConsole</text></g><!--class ContentText--><g id="elem_ContentText"><rect codeLine="93" fill="#F1F1F1" height="32" id="ContentText" rx="2.5" ry="2.5" style="stroke:#181818;stroke-width:0.5;" width="116.4102" x="1110.68" y="757.25"/><ellipse cx="1125.68" cy="773.25" fill="#ADD1B2" rx="11" ry="11" style="stroke:#181818;stroke-width:1;"/><path d="M1128.1531,779.3931 Q1127.5721,779.6919 1126.9329,779.8413 Q1126.2938,779.9907 1125.5882,779.9907 Q1123.0814,779.9907 1121.7615,778.3389 Q1120.4417,776.687 1120.4417,773.5659 Q1120.4417,770.4365 1121.7615,768.7847 Q1123.0814,767.1328 1125.5882,767.1328 Q1126.2938,767.1328 1126.9412,767.2822 Q1127.5887,767.4316 1128.1531,767.7305 L1128.1531,770.4531 Q1127.5223,769.8721 1126.9288,769.6023 Q1126.3353,769.3325 1125.7044,769.3325 Q1124.3597,769.3325 1123.6749,770.3992 Q1122.9901,771.4658 1122.9901,773.5659 Q1122.9901,775.6577 1123.6749,776.7244 Q1124.3597,777.791 1125.7044,777.791 Q1126.3353,777.791 1126.9288,777.5212 Q1127.5223,777.2515 1128.1531,776.6704 Z " fill="#000000"/><text fill="#000000" font-family="sans-serif" font-size="14" lengthAdjust="spacing" textLength="84.4102" x="1139.68" y="778.541">ContentText</text></g><!--class LoggedContent--><g id="elem_LoggedContent"><rect codeLine="94" fill="#F1F1F1" height="32" id="LoggedContent" rx="2.5" ry="2.5" style="stroke:#181818;stroke-width:0.5;" width="82.1348" x="773.82" y="757.25"/><ellipse cx="788.82" cy="773.25" fill="#ADD1B2" rx="11" ry="11" style="stroke:#181818;stroke-width:1;"/><path d="M791.2931,779.3931 Q790.7121,779.6919 790.0729,779.8413 Q789.4338,779.9907 788.7282,779.9907 Q786.2214,779.9907 784.9015,778.3389 Q783.5817,776.687 783.5817,773.5659 Q783.5817,770.4365 784.9015,768.7847 Q786.2214,767.1328 788.7282,767.1328 Q789.4338,767.1328 790.0812,767.2822 Q790.7287,767.4316 791.2931,767.7305 L791.2931,770.4531 Q790.6623,769.8721 790.0688,769.6023 Q789.4753,769.3325 788.8444,769.3325 Q787.4997,769.3325 786.8149,770.3992 Q786.1301,771.4658 786.1301,773.5659 Q786.1301,775.6577 786.8149,776.7244 Q787.4997,777.791 788.8444,777.791 Q789.4753,777.791 790.0688,777.5212 Q790.6623,777.2515 791.2931,776.6704 Z " fill="#000000"/><text fill="#000000" font-family="sans-serif" font-size="14" lengthAdjust="spacing" textLength="50.1348" x="802.82" y="778.541">Logged</text></g><!--class RetryContent--><g id="elem_RetryContent"><rect codeLine="95" fill="#F1F1F1" height="32" id="RetryContent" rx="2.5" ry="2.5" style="stroke:#181818;stroke-width:0.5;" width="66.9316" x="1262.42" y="757.25"/><ellipse cx="1277.42" cy="773.25" fill="#ADD1B2" rx="11" ry="11" style="stroke:#181818;stroke-width:1;"/><path d="M1279.8931,779.3931 Q1279.3121,779.6919 1278.6729,779.8413 Q1278.0338,779.9907 1277.3282,779.9907 Q1274.8214,779.9907 1273.5015,778.3389 Q1272.1817,776.687 1272.1817,773.5659 Q1272.1817,770.4365 1273.5015,768.7847 Q1274.8214,767.1328 1277.3282,767.1328 Q1278.0338,767.1328 1278.6812,767.2822 Q1279.3287,767.4316 1279.8931,767.7305 L1279.8931,770.4531 Q1279.2623,769.8721 1278.6688,769.6023 Q1278.0753,769.3325 1277.4444,769.3325 Q1276.0997,769.3325 1275.4149,770.3992 Q1274.7301,771.4658 1274.7301,773.5659 Q1274.7301,775.6577 1275.4149,776.7244 Q1276.0997,777.791 1277.4444,777.791 Q1278.0753,777.791 1278.6688,777.5212 Q1279.2623,777.2515 1279.8931,776.6704 Z " fill="#000000"/><text fill="#000000" font-family="sans-serif" font-size="14" lengthAdjust="spacing" textLength="34.9316" x="1291.42" y="778.541">Retry</text></g><!--reverse link Element to PwElement--><g id="link_Element_PwElement"><path codeLine="97" d="M1457.5019,147.3199 C1466.3319,184.3799 1472.78,211.44 1478.24,234.37 " fill="#FFFFFF" fill-opacity="0.00000" id="Element-backto-PwElement" style="stroke:#181818;stroke-width:1;stroke-dasharray:7.0,7.0;"/><polygon fill="#FFFFFF" fill-opacity="0.00000" points="1453.33,129.81,1451.6653,148.7105,1463.3386,145.9292,1453.33,129.81" style="stroke:#181818;stroke-width:1;"/></g><!--reverse link Html to PwHtml--><g id="link_Html_PwHtml"><path codeLine="99" d="M1260.6281,329.0516 C1272.8281,360.7916 1280.33,380.34 1288.03,400.36 " fill="#FFFFFF" fill-opacity="0.00000" id="Html-backto-PwHtml" style="stroke:#181818;stroke-width:1;stroke-dasharray:7.0,7.0;"/><polygon fill="#FFFFFF" fill-opacity="0.00000" points="1254.17,312.25,1255.0275,331.2043,1266.2286,326.8989,1254.17,312.25" style="stroke:#181818;stroke-width:1;"/></g><!--reverse link Response to PwResponse--><g id="link_Response_PwResponse"><path codeLine="101" d="M1232.843,460.1295 C1238.593,463.8995 1229.33,457.79 1234.89,461.35 C1277.58,488.68 1291.44,490.79 1331.89,521.35 C1353.98,538.03 1377.18,560 1391.82,574.5 " fill="#FFFFFF" fill-opacity="0.00000" id="Response-backto-PwResponse" style="stroke:#181818;stroke-width:1;stroke-dasharray:7.0,7.0;"/><polygon fill="#FFFFFF" fill-opacity="0.00000" points="1217.79,450.26,1229.5531,465.1472,1236.1328,455.1119,1217.79,450.26" style="stroke:#181818;stroke-width:1;"/></g><!--reverse link Page to PwPage--><g id="link_Page_PwPage"><path codeLine="103" d="M888.0225,676.8928 C904.2425,712.1528 915.08,735.71 924.86,756.98 " fill="#FFFFFF" fill-opacity="0.00000" id="Page-backto-PwPage" style="stroke:#181818;stroke-width:1;stroke-dasharray:7.0,7.0;"/><polygon fill="#FFFFFF" fill-opacity="0.00000" points="880.5,660.54,882.5715,679.4002,893.4734,674.3853,880.5,660.54" style="stroke:#181818;stroke-width:1;"/></g><!--reverse link Page to LoggedPage--><g id="link_Page_LoggedPage"><path codeLine="104" d="M692.3015,629.8912 C618.8115,650.8712 546.25,677.3 472.89,720.28 C456.09,730.12 439.84,745.33 428.83,756.76 " fill="#FFFFFF" fill-opacity="0.00000" id="Page-backto-LoggedPage" style="stroke:#181818;stroke-width:1;stroke-dasharray:7.0,7.0;"/><polygon fill="#FFFFFF" fill-opacity="0.00000" points="709.61,624.95,690.6544,624.1217,693.9486,635.6607,709.61,624.95" style="stroke:#181818;stroke-width:1;"/></g><!--reverse link Page to RetryPage--><g id="link_Page_RetryPage"><path codeLine="105" d="M940.0187,672.7353 C961.0887,691.7953 970.39,700.59 990.89,720.28 C1003.47,732.36 1017.31,746.52 1027.39,757.01 " fill="#FFFFFF" fill-opacity="0.00000" id="Page-backto-RetryPage" style="stroke:#181818;stroke-width:1;stroke-dasharray:7.0,7.0;"/><polygon fill="#FFFFFF" fill-opacity="0.00000" points="926.67,660.66,935.9936,677.1848,944.0438,668.2857,926.67,660.66" style="stroke:#181818;stroke-width:1;"/></g><!--reverse link Browser to Chromium--><g id="link_Browser_Chromium"><path codeLine="107" d="M580.9047,842.7568 C570.3347,864.0768 566.89,870.99 559.58,885.73 " fill="#FFFFFF" fill-opacity="0.00000" id="Browser-backto-Chromium" style="stroke:#181818;stroke-width:1;stroke-dasharray:7.0,7.0;"/><polygon fill="#FFFFFF" fill-opacity="0.00000" points="588.9,826.63,575.5291,840.0917,586.2803,845.4219,588.9,826.63" style="stroke:#181818;stroke-width:1;"/></g><!--reverse link Browser to Firefox--><g id="link_Browser_Firefox"><path codeLine="108" d="M648.8753,842.7568 C659.4453,864.0768 662.88,870.99 670.2,885.73 " fill="#FFFFFF" fill-opacity="0.00000" id="Browser-backto-Firefox" style="stroke:#181818;stroke-width:1;stroke-dasharray:7.0,7.0;"/><polygon fill="#FFFFFF" fill-opacity="0.00000" points="640.88,826.63,643.4997,845.4219,654.2509,840.0917,640.88,826.63" style="stroke:#181818;stroke-width:1;"/></g><!--reverse link Browser to Webkit--><g id="link_Browser_Webkit"><path codeLine="109" d="M702.5242,837.1244 C732.2342,858.4444 749.73,870.99 770.28,885.73 " fill="#FFFFFF" fill-opacity="0.00000" id="Browser-backto-Webkit" style="stroke:#181818;stroke-width:1;stroke-dasharray:7.0,7.0;"/><polygon fill="#FFFFFF" fill-opacity="0.00000" points="687.9,826.63,699.0261,841.9991,706.0223,832.2497,687.9,826.63" style="stroke:#181818;stroke-width:1;"/></g><!--reverse link Browser to LoggedBrowser--><g id="link_Browser_LoggedBrowser"><path codeLine="110" d="M473.4622,826.913 C411.8222,849.873 358.39,869.77 315.07,885.89 " fill="#FFFFFF" fill-opacity="0.00000" id="Browser-backto-LoggedBrowser" style="stroke:#181818;stroke-width:1;stroke-dasharray:7.0,7.0;"/><polygon fill="#FFFFFF" fill-opacity="0.00000" points="490.33,820.63,471.3678,821.2904,475.5565,832.5356,490.33,820.63" style="stroke:#181818;stroke-width:1;"/></g><!--reverse link Browser to Headed--><g id="link_Browser_Headed"><path codeLine="111" d="M521.1116,836.5973 C489.0516,857.9173 469.38,870.99 447.2,885.73 " fill="#FFFFFF" fill-opacity="0.00000" id="Browser-backto-Headed" style="stroke:#181818;stroke-width:1;stroke-dasharray:7.0,7.0;"/><polygon fill="#FFFFFF" fill-opacity="0.00000" points="536.1,826.63,517.7892,831.6012,524.434,841.5935,536.1,826.63" style="stroke:#181818;stroke-width:1;"/></g><!--reverse link Config to FileConfig--><g id="link_Config_FileConfig"><path codeLine="113" d="M1736.2168,122.3796 C1726.8168,161.8196 1716.29,206.04 1709.52,234.43 " fill="#FFFFFF" fill-opacity="0.00000" id="Config-backto-FileConfig" style="stroke:#181818;stroke-width:1;stroke-dasharray:7.0,7.0;"/><polygon fill="#FFFFFF" fill-opacity="0.00000" points="1740.39,104.87,1730.3803,120.9885,1742.0533,123.7706,1740.39,104.87" style="stroke:#181818;stroke-width:1;"/></g><!--reverse link Config to FakeConfig--><g id="link_Config_FakeConfig"><path codeLine="114" d="M1776.3134,120.7615 C1797.2934,160.2015 1821.68,206.04 1836.79,234.43 " fill="#FFFFFF" fill-opacity="0.00000" id="Config-backto-FakeConfig" style="stroke:#181818;stroke-width:1;stroke-dasharray:7.0,7.0;"/><polygon fill="#FFFFFF" fill-opacity="0.00000" points="1767.86,104.87,1771.0163,123.5793,1781.6106,117.9437,1767.86,104.87" style="stroke:#181818;stroke-width:1;"/></g><!--reverse link Console to StdConsole--><g id="link_Console_StdConsole"><path codeLine="116" d="M284.89,678.54 C284.89,713.8 284.89,735.71 284.89,756.98 " fill="#FFFFFF" fill-opacity="0.00000" id="Console-backto-StdConsole" style="stroke:#181818;stroke-width:1;stroke-dasharray:7.0,7.0;"/><polygon fill="#FFFFFF" fill-opacity="0.00000" points="284.89,660.54,278.89,678.54,290.89,678.54,284.89,660.54" style="stroke:#181818;stroke-width:1;"/></g><!--reverse link Console to FakeConsole--><g id="link_Console_FakeConsole"><path codeLine="117" d="M187.5786,671.9868 C144.7886,707.2468 110.25,735.71 84.43,756.98 " fill="#FFFFFF" fill-opacity="0.00000" id="Console-backto-FakeConsole" style="stroke:#181818;stroke-width:1;stroke-dasharray:7.0,7.0;"/><polygon fill="#FFFFFF" fill-opacity="0.00000" points="201.47,660.54,183.763,667.3564,191.3942,676.6173,201.47,660.54" style="stroke:#181818;stroke-width:1;"/></g><!--reverse link Content to ContentText--><g id="link_Content_ContentText"><path codeLine="119" d="M1168.89,645.46 C1168.89,684.9 1168.89,728.63 1168.89,757.02 " fill="#FFFFFF" fill-opacity="0.00000" id="Content-backto-ContentText" style="stroke:#181818;stroke-width:1;stroke-dasharray:7.0,7.0;"/><polygon fill="#FFFFFF" fill-opacity="0.00000" points="1168.89,627.46,1162.89,645.46,1174.89,645.46,1168.89,627.46" style="stroke:#181818;stroke-width:1;"/></g><!--reverse link Content to LoggedContent--><g id="link_Content_LoggedContent"><path codeLine="120" d="M1065.8238,634.6151 C985.3638,668.2651 891.69,708.22 872.89,720.28 C856.5,730.79 840.19,745.92 829.07,757.15 " fill="#FFFFFF" fill-opacity="0.00000" id="Content-backto-LoggedContent" style="stroke:#181818;stroke-width:1;stroke-dasharray:7.0,7.0;"/><polygon fill="#FFFFFF" fill-opacity="0.00000" points="1082.43,627.67,1063.5088,629.0796,1068.1388,640.1505,1082.43,627.67" style="stroke:#181818;stroke-width:1;"/></g><!--reverse link Content to RetryContent--><g id="link_Content_RetryContent"><path codeLine="121" d="M1204.3404,642.1795 C1232.1004,681.6195 1265.18,728.63 1285.17,757.02 " fill="#FFFFFF" fill-opacity="0.00000" id="Content-backto-RetryContent" style="stroke:#181818;stroke-width:1;stroke-dasharray:7.0,7.0;"/><polygon fill="#FFFFFF" fill-opacity="0.00000" points="1193.98,627.46,1199.4339,645.6329,1209.2469,638.726,1193.98,627.46" style="stroke:#181818;stroke-width:1;"/></g><!--reverse link Element to Html--><g id="link_Element_Html"><path codeLine="123" d="M1364.5172,133.7411 C1342.4472,152.8811 1322.6,170.1 1300.54,189.24 " fill="#FFFFFF" fill-opacity="0.00000" id="Element-backto-Html" style="stroke:#181818;stroke-width:1;stroke-dasharray:7.0,7.0;"/><polygon fill="#181818" points="1369.05,129.81,1359.63,132.6847,1365.2726,133.0859,1364.8714,138.7285,1369.05,129.81" style="stroke:#181818;stroke-width:1;"/></g><!--reverse link Response to Page--><g id="link_Response_Page"><path codeLine="124" d="M1115.0062,446.6129 C1076.8862,467.1229 1027.31,493.8 976.88,520.94 " fill="#FFFFFF" fill-opacity="0.00000" id="Response-backto-Page" style="stroke:#181818;stroke-width:1;stroke-dasharray:7.0,7.0;"/><polygon fill="#181818" points="1120.29,443.77,1110.4691,444.5118,1115.8869,446.1391,1114.2596,451.5568,1120.29,443.77" style="stroke:#181818;stroke-width:1;"/></g><!--reverse link Page to Browser--><g id="link_Page_Browser"><path codeLine="125" d="M755.0081,664.2033 C729.4281,683.9233 706.72,701.44 682.66,719.99 " fill="#FFFFFF" fill-opacity="0.00000" id="Page-backto-Browser" style="stroke:#181818;stroke-width:1;stroke-dasharray:7.0,7.0;"/><polygon fill="#181818" points="759.76,660.54,750.19,662.867,755.8001,663.5927,755.0744,669.2029,759.76,660.54" style="stroke:#181818;stroke-width:1;"/></g><!--reverse link RandomWait to Page--><g id="link_RandomWait_Page"><path codeLine="126" d="M920.834,450.6096 C910.264,471.0496 898.16,494.48 884.47,520.97 " fill="#FFFFFF" fill-opacity="0.00000" id="RandomWait-backto-Page" style="stroke:#181818;stroke-width:1;stroke-dasharray:7.0,7.0;"/><polygon fill="#181818" points="923.59,445.28,915.9029,451.437,921.2933,449.7213,923.009,455.1117,923.59,445.28" style="stroke:#181818;stroke-width:1;"/></g><!--reverse link RandomInt to Page--><g id="link_RandomInt_Page"><path codeLine="127" d="M754.086,458.1591 C768.206,477.7691 782.69,497.89 799.42,521.11 " fill="#FFFFFF" fill-opacity="0.00000" id="RandomInt-backto-Page" style="stroke:#181818;stroke-width:1;stroke-dasharray:7.0,7.0;"/><polygon fill="#181818" points="750.58,453.29,752.5929,462.931,753.5016,457.3476,759.085,458.2564,750.58,453.29" style="stroke:#181818;stroke-width:1;"/></g><!--reverse link Response to Content--><g id="link_Response_Content"><path codeLine="129" d="M1168.89,467.51 C1168.89,496.11 1168.89,526.96 1168.89,553.83 " fill="#FFFFFF" fill-opacity="0.00000" id="Response-backto-Content" style="stroke:#181818;stroke-width:1;stroke-dasharray:7.0,7.0;"/><polygon fill="#181818" points="1168.89,461.51,1164.89,470.51,1168.89,466.51,1172.89,470.51,1168.89,461.51" style="stroke:#181818;stroke-width:1;"/></g><!--reverse link Html to Response--><g id="link_Html_Response"><path codeLine="130" d="M1205.8566,317.8617 C1198.4366,337.4717 1192.48,353.23 1185.6,371.42 " fill="#FFFFFF" fill-opacity="0.00000" id="Html-backto-Response" style="stroke:#181818;stroke-width:1;"/><polygon fill="#181818" points="1207.98,312.25,1201.0538,319.252,1206.2105,316.9264,1208.5361,322.0831,1207.98,312.25" style="stroke:#181818;stroke-width:1;"/></g><!--reverse link Console to LoggedBrowser--><g id="link_Console_LoggedBrowser"><path codeLine="132" d="M234.9448,665.9797 C224.6848,684.5197 218.22,699.87 212.89,720.28 C200.99,765.84 197.12,781.86 212.89,826.23 C221.37,850.11 241.07,871.91 255.8,885.78 " fill="#FFFFFF" fill-opacity="0.00000" id="Console-backto-LoggedBrowser" style="stroke:#181818;stroke-width:1;"/><polygon fill="#181818" points="237.85,660.73,229.9924,666.6678,235.429,665.1048,236.992,670.5414,237.85,660.73" style="stroke:#181818;stroke-width:1;"/></g><!--reverse link Console to LoggedPage--><g id="link_Console_LoggedPage"><path codeLine="133" d="M337.917,665.4084 C363.317,700.6684 388.56,735.71 403.88,756.98 " fill="#FFFFFF" fill-opacity="0.00000" id="Console-backto-LoggedPage" style="stroke:#181818;stroke-width:1;"/><polygon fill="#181818" points="334.41,660.54,336.4249,670.1805,337.3325,664.597,342.9161,665.5046,334.41,660.54" style="stroke:#181818;stroke-width:1;"/></g><!--reverse link Console to LoggedContent--><g id="link_Console_LoggedContent"><path codeLine="134" d="M389.8002,606.0454 C488.9102,622.3754 637.53,655.35 756.89,720.28 C774.23,729.71 790.66,745.29 801.57,756.94 " fill="#FFFFFF" fill-opacity="0.00000" id="Console-backto-LoggedContent" style="stroke:#181818;stroke-width:1;"/><polygon fill="#181818" points="383.88,605.07,392.11,610.48,388.8135,605.8829,393.4106,602.5864,383.88,605.07" style="stroke:#181818;stroke-width:1;"/></g><!--SRC=[VLLDJzmm4BtdLrYSqcf1FQFsG14LI5M55YGELRNoniEkjOuTsSwosu__tl74JcoMm04yRoRpyTxOk9tK7RUyPOtYpbrvR-Mwzt3N6FqWVmFxL6sb00Pjvu-iXNODrbMLr1xiCs-0tIXeGNlsfsBuu-7Wwm-Np7axsYu0IZh_4z5V1E-basi5mR4sHX7MADdi0lB3Q214-sqjjO339SDww8crgdzv0xU-LR4w3FxQuQ7nnb8V2_PnmRRShK8lX6IPmbVhuyeQR2RychxGl8MPQ0_EhwIeuz-tef0z7ph9g80zLpttKCEXi-2SD3fzUQMFvKnBS9tH3k9SpdFV4uqovj_YqC4EmnFGMvMA5Pdk-IPboKA2QJhGmKwr2Enuxw0GeL7c5M916IvEFdKD4gXgoxKmxUg5IoHxISOJdfFIHNDVhNbnO6D_rD0Mk538pX3Elh17syFx_GIbyi4w7Bd6OHExWOAoxhNHpt8JowPXX6neGnT1Zc5D7Tz3BRZdhxsf_Eki3bSefkqiUkeMHy7ogPMnP_8gFUjNPlEUxvqldHUcBnOF4R3spUsu7jRqxGMny2mrNeieyYJtALcOb9wFAFZTc3BiFDIulzRJyYuOQ96kSrfc2d9pKVHouF6aIbYhMCRskiuq6QBkNzAD706wBgCrhk-8qAeCnjbtizc0E6FSiU6OEvVWxP5yT29Nz5rlhMbbtqRpcqGUpI5QJx3UIH-DMznr4BFruksenaGAXiLD0Dyb828FNiGbB4C8IUqDaZ_YOpXRESRC39kyLNhwF_-zkCZPfXSvWWFZutiMqObvUfyYIYnEGCRw16PqfzU3y97r0ata5s3KeC1AnWjNLAcAZqRCEsfHm9aYwJKWHoPCWHVwfCiup9F9L3XAXGhNZ3fXXg32949WUw8LhJHuTh76eEbAZr2PAbKSP3y_d_ujJCCYMb9ywg7Cft3A_Xy0]--></g></svg>